<svg height="622" id="my-svg" width="1560" xmlns="http://www.w3.org/2000/svg" xmlns:xlink="http://www.w3.org/1999/xlink" class="flowchart" style="background-color: white;" viewBox="4 4 1559.734375 622" role="graphics-document document" aria-roledescription="flowchart-elk"><style>#my-svg{font-family:"trebuchet ms",verdana,arial,sans-serif;font-size:16px;fill:#333;}@keyframes edge-animation-frame{from{stroke-dashoffset:0;}}@keyframes dash{to{stroke-dashoffset:0;}}#my-svg .edge-animation-slow{stroke-dasharray:9,5!important;stroke-dashoffset:900;animation:dash 50s linear infinite;stroke-linecap:round;}#my-svg .edge-animation-fast{stroke-dasharray:9,5!important;stroke-dashoffset:900;animation:dash 20s linear infinite;stroke-linecap:round;}#my-svg .error-icon{fill:#552222;}#my-svg .error-text{fill:#552222;stroke:#552222;}#my-svg .edge-thickness-normal{stroke-width:1px;}#my-svg .edge-thickness-thick{stroke-width:3.5px;}#my-svg .edge-pattern-solid{stroke-dasharray:0;}#my-svg .edge-thickness-invisible{stroke-width:0;fill:none;}#my-svg .edge-pattern-dashed{stroke-dasharray:3;}#my-svg .edge-pattern-dotted{stroke-dasharray:2;}#my-svg .marker{fill:#333333;stroke:#333333;}#my-svg .marker.cross{stroke:#333333;}#my-svg svg{font-family:"trebuchet ms",verdana,arial,sans-serif;font-size:16px;}#my-svg p{margin:0;}#my-svg .label{font-family:"trebuchet ms",verdana,arial,sans-serif;color:#333;}#my-svg .cluster-label text{fill:#333;}#my-svg .cluster-label span{color:#333;}#my-svg .cluster-label span p{background-color:transparent;}#my-svg .label text,#my-svg span{fill:#333;color:#333;}#my-svg .node rect,#my-svg .node circle,#my-svg .node ellipse,#my-svg .node polygon,#my-svg .node path{fill:#ECECFF;stroke:#9370DB;stroke-width:1px;}#my-svg .rough-node .label text,#my-svg .node .label text,#my-svg .image-shape .label,#my-svg .icon-shape .label{text-anchor:middle;}#my-svg .node .katex path{fill:#000;stroke:#000;stroke-width:1px;}#my-svg .rough-node .label,#my-svg .node .label,#my-svg .image-shape .label,#my-svg .icon-shape .label{text-align:center;}#my-svg .node.clickable{cursor:pointer;}#my-svg .root .anchor path{fill:#333333!important;stroke-width:0;stroke:#333333;}#my-svg .arrowheadPath{fill:#333333;}#my-svg .edgePath .path{stroke:#333333;stroke-width:1px;}#my-svg .flowchart-link{stroke:#333333;fill:none;}#my-svg .edgeLabel{background-color:rgba(232,232,232, 0.8);text-align:center;}#my-svg .edgeLabel p{background-color:rgba(232,232,232, 0.8);}#my-svg .edgeLabel rect{opacity:0.5;background-color:rgba(232,232,232, 0.8);fill:rgba(232,232,232, 0.8);}#my-svg .labelBkg{background-color:rgba(232, 232, 232, 0.5);}#my-svg .cluster rect{fill:#ffffde;stroke:#aaaa33;stroke-width:1px;}#my-svg .cluster text{fill:#333;}#my-svg .cluster span{color:#333;}#my-svg div.mermaidTooltip{position:absolute;text-align:center;max-width:200px;padding:2px;font-family:"trebuchet ms",verdana,arial,sans-serif;font-size:12px;background:hsl(80, 100%, 96.2745098039%);border:1px solid #aaaa33;border-radius:2px;pointer-events:none;z-index:100;}#my-svg .flowchartTitleText{text-anchor:middle;font-size:18px;fill:#333;}#my-svg rect.text{fill:none;stroke-width:0;}#my-svg .icon-shape,#my-svg .image-shape{background-color:rgba(232,232,232, 0.8);text-align:center;}#my-svg .icon-shape p,#my-svg .image-shape p{background-color:rgba(232,232,232, 0.8);padding:2px;}#my-svg .icon-shape .label rect,#my-svg .image-shape .label rect{opacity:0.5;background-color:rgba(232,232,232, 0.8);fill:rgba(232,232,232, 0.8);}#my-svg .label-icon{display:inline-block;height:1em;overflow:visible;vertical-align:-0.125em;}#my-svg .node .label-icon path{fill:currentColor;stroke:revert;stroke-width:revert;}#my-svg .node .neo-node{stroke:#9370DB;}#my-svg [data-look="neo"].node rect,#my-svg [data-look="neo"].cluster rect,#my-svg [data-look="neo"].node polygon{stroke:#9370DB;filter:drop-shadow(1px 2px 2px rgba(185, 185, 185, 1));}#my-svg [data-look="neo"].node path{stroke:#9370DB;stroke-width:1px;}#my-svg [data-look="neo"].node .outer-path{filter:drop-shadow(1px 2px 2px rgba(185, 185, 185, 1));}#my-svg [data-look="neo"].node .neo-line path{stroke:#9370DB;filter:none;}#my-svg [data-look="neo"].node circle{stroke:#9370DB;filter:drop-shadow(1px 2px 2px rgba(185, 185, 185, 1));}#my-svg [data-look="neo"].node circle .state-start{fill:#000000;}#my-svg [data-look="neo"].icon-shape .icon{fill:#9370DB;filter:drop-shadow(1px 2px 2px rgba(185, 185, 185, 1));}#my-svg [data-look="neo"].icon-shape .icon-neo path{stroke:#9370DB;filter:drop-shadow(1px 2px 2px rgba(185, 185, 185, 1));}#my-svg :root{--mermaid-font-family:"trebuchet ms",verdana,arial,sans-serif;}</style><g><marker id="my-svg_flowchart-elk-pointEnd" class="marker flowchart-elk" viewBox="0 0 10 10" refX="5" refY="5" markerUnits="userSpaceOnUse" markerWidth="8" markerHeight="8" orient="auto"><path d="M 0 0 L 10 5 L 0 10 z" class="arrowMarkerPath" style="stroke-width: 1; stroke-dasharray: 1, 0;"/></marker><marker id="my-svg_flowchart-elk-pointStart" class="marker flowchart-elk" viewBox="0 0 10 10" refX="4.5" refY="5" markerUnits="userSpaceOnUse" markerWidth="8" markerHeight="8" orient="auto"><path d="M 0 5 L 10 10 L 10 0 z" class="arrowMarkerPath" style="stroke-width: 1; stroke-dasharray: 1, 0;"/></marker><marker id="my-svg_flowchart-elk-pointEnd-margin" class="marker flowchart-elk" viewBox="0 0 11.5 14" refX="11.5" refY="7" markerUnits="userSpaceOnUse" markerWidth="10.5" markerHeight="14" orient="auto"><path d="M 0 0 L 11.5 7 L 0 14 z" class="arrowMarkerPath" style="stroke-width: 0; stroke-dasharray: 1, 0;"/></marker><marker id="my-svg_flowchart-elk-pointStart-margin" class="marker flowchart-elk" viewBox="0 0 11.5 14" refX="1" refY="7" markerUnits="userSpaceOnUse" markerWidth="11.5" markerHeight="14" orient="auto"><polygon points="0,7 11.5,14 11.5,0" class="arrowMarkerPath" style="stroke-width: 0; stroke-dasharray: 1, 0;"/></marker><marker id="my-svg_flowchart-elk-circleEnd" class="marker flowchart-elk" viewBox="0 0 10 10" refX="11" refY="5" markerUnits="userSpaceOnUse" markerWidth="11" markerHeight="11" orient="auto"><circle cx="5" cy="5" r="5" class="arrowMarkerPath" style="stroke-width: 1; stroke-dasharray: 1, 0;"/></marker><marker id="my-svg_flowchart-elk-circleStart" class="marker flowchart-elk" viewBox="0 0 10 10" refX="-1" refY="5" markerUnits="userSpaceOnUse" markerWidth="11" markerHeight="11" orient="auto"><circle cx="5" cy="5" r="5" class="arrowMarkerPath" style="stroke-width: 1; stroke-dasharray: 1, 0;"/></marker><marker id="my-svg_flowchart-elk-circleEnd-margin" class="marker flowchart-elk" viewBox="0 0 10 10" refY="5" refX="12.25" markerUnits="userSpaceOnUse" markerWidth="14" markerHeight="14" orient="auto"><circle cx="5" cy="5" r="5" class="arrowMarkerPath" style="stroke-width: 0; stroke-dasharray: 1, 0;"/></marker><marker id="my-svg_flowchart-elk-circleStart-margin" class="marker flowchart-elk" viewBox="0 0 10 10" refX="-2" refY="5" markerUnits="userSpaceOnUse" markerWidth="14" markerHeight="14" orient="auto"><circle cx="5" cy="5" r="5" class="arrowMarkerPath" style="stroke-width: 0; stroke-dasharray: 1, 0;"/></marker><marker id="my-svg_flowchart-elk-crossEnd" class="marker cross flowchart-elk" viewBox="0 0 11 11" refX="12" refY="5.2" markerUnits="userSpaceOnUse" markerWidth="11" markerHeight="11" orient="auto"><path d="M 1,1 l 9,9 M 10,1 l -9,9" class="arrowMarkerPath" style="stroke-width: 2; stroke-dasharray: 1, 0;"/></marker><marker id="my-svg_flowchart-elk-crossStart" class="marker cross flowchart-elk" viewBox="0 0 11 11" refX="-1" refY="5.2" markerUnits="userSpaceOnUse" markerWidth="11" markerHeight="11" orient="auto"><path d="M 1,1 l 9,9 M 10,1 l -9,9" class="arrowMarkerPath" style="stroke-width: 2; stroke-dasharray: 1, 0;"/></marker><marker id="my-svg_flowchart-elk-crossEnd-margin" class="marker cross flowchart-elk" viewBox="0 0 15 15" refX="17.7" refY="7.5" markerUnits="userSpaceOnUse" markerWidth="12" markerHeight="12" orient="auto"><path d="M 1,1 L 14,14 M 1,14 L 14,1" class="arrowMarkerPath" style="stroke-width: 2.5;"/></marker><marker id="my-svg_flowchart-elk-crossStart-margin" class="marker cross flowchart-elk" viewBox="0 0 15 15" refX="-3.5" refY="7.5" markerUnits="userSpaceOnUse" markerWidth="12" markerHeight="12" orient="auto"><path d="M 1,1 L 14,14 M 1,14 L 14,1" class="arrowMarkerPath" style="stroke-width: 2.5; stroke-dasharray: 1, 0;"/></marker></g><defs><filter id="my-svg-drop-shadow" height="130%" width="130%"><feDropShadow dx="4" dy="4" stdDeviation="0" flood-opacity="0.06" flood-color="#000000"/></filter></defs><defs><filter id="my-svg-drop-shadow-small" height="150%" width="150%"><feDropShadow dx="2" dy="2" stdDeviation="0" flood-opacity="0.06" flood-color="#000000"/></filter></defs><g class="subgraphs"/><g class="nodes"><g class="node default" id="my-svg-flowchart-Benutzer-0" data-look="classic" transform="translate(146.109375, 461.5)"><rect class="basic label-container" style="" x="-62.078125" y="-27" width="124.15625" height="54"/><g class="label" style="" transform="translate(-32.078125, -12)"><rect/><foreignObject width="64.15625" height="24"><div xmlns="http://www.w3.org/1999/xhtml" style="display: table-cell; white-space: nowrap; line-height: 1.5; max-width: 200px; text-align: center;"><span class="nodeLabel"><p>Benutzer</p></span></div></foreignObject></g></g><g class="node default" id="my-svg-flowchart-UI-1" data-look="classic" transform="translate(357.296875, 470.5)"><rect class="basic label-container" style="" x="-96.609375" y="-27" width="193.21875" height="54"/><g class="label" style="" transform="translate(-66.609375, -12)"><rect/><foreignObject width="133.21875" height="24"><div xmlns="http://www.w3.org/1999/xhtml" style="display: table-cell; white-space: nowrap; line-height: 1.5; max-width: 200px; text-align: center;"><span class="nodeLabel"><p>JavaFX Workbench</p></span></div></foreignObject></g></g><g class="node default" id="my-svg-flowchart-Zeichensteuerung-3" data-look="classic" transform="translate(568.859375, 470.5)"><rect class="basic label-container" style="" x="-79.953125" y="-27" width="159.90625" height="54"/><g class="label" style="" transform="translate(-49.953125, -12)"><rect/><foreignObject width="99.90625" height="24"><div xmlns="http://www.w3.org/1999/xhtml" style="display: table-cell; white-space: nowrap; line-height: 1.5; max-width: 200px; text-align: center;"><span class="nodeLabel"><p>UI-Interaktion</p></span></div></foreignObject></g></g><g class="node default" id="my-svg-flowchart-Drafting-5" data-look="classic" transform="translate(864.09375, 39)"><rect class="basic label-container" style="" x="-84.859375" y="-27" width="169.71875" height="54"/><g class="label" style="" transform="translate(-54.859375, -12)"><rect/><foreignObject width="109.71875" height="24"><div xmlns="http://www.w3.org/1999/xhtml" style="display: table-cell; white-space: nowrap; line-height: 1.5; max-width: 200px; text-align: center;"><span class="nodeLabel"><p>DraftingService</p></span></div></foreignObject></g></g><g class="node default" id="my-svg-flowchart-Snap-7" data-look="classic" transform="translate(876.8046875, 128)"><rect class="basic label-container" style="" x="-72.7265625" y="-27" width="145.453125" height="54"/><g class="label" style="" transform="translate(-42.7265625, -12)"><rect/><foreignObject width="85.453125" height="24"><div xmlns="http://www.w3.org/1999/xhtml" style="display: table-cell; white-space: nowrap; line-height: 1.5; max-width: 200px; text-align: center;"><span class="nodeLabel"><p>SnapService</p></span></div></foreignObject></g></g><g class="node default" id="my-svg-flowchart-Editing-9" data-look="classic" transform="translate(876.8046875, 217)"><rect class="basic label-container" style="" x="-96" y="-27" width="192" height="54"/><g class="label" style="" transform="translate(-66, -12)"><rect/><foreignObject width="132" height="24"><div xmlns="http://www.w3.org/1999/xhtml" style="display: table-cell; white-space: nowrap; line-height: 1.5; max-width: 200px; text-align: center;"><span class="nodeLabel"><p>WallEditingService</p></span></div></foreignObject></g></g><g class="node default" id="my-svg-flowchart-Openings-11" data-look="classic" transform="translate(876.8046875, 306)"><rect class="basic label-container" style="" x="-122.9921875" y="-27" width="245.984375" height="54"/><g class="label" style="" transform="translate(-92.9921875, -12)"><rect/><foreignObject width="185.984375" height="24"><div xmlns="http://www.w3.org/1999/xhtml" style="display: table-cell; white-space: nowrap; line-height: 1.5; max-width: 200px; text-align: center;"><span class="nodeLabel"><p>OpeningPlacementService</p></span></div></foreignObject></g></g><g class="node default" id="my-svg-flowchart-Parts-13" data-look="classic" transform="translate(855.359375, 395)"><rect class="basic label-container" style="" x="-101.546875" y="-27" width="203.09375" height="54"/><g class="label" style="" transform="translate(-71.546875, -12)"><rect/><foreignObject width="143.09375" height="24"><div xmlns="http://www.w3.org/1999/xhtml" style="display: table-cell; white-space: nowrap; line-height: 1.5; max-width: 200px; text-align: center;"><span class="nodeLabel"><p>StandardPartLibrary</p></span></div></foreignObject></g></g><g class="node default" id="my-svg-flowchart-Exchange-15" data-look="classic" transform="translate(876.8046875, 484)"><rect class="basic label-container" style="" x="-108.4765625" y="-27" width="216.953125" height="54"/><g class="label" style="" transform="translate(-78.4765625, -12)"><rect/><foreignObject width="156.953125" height="24"><div xmlns="http://www.w3.org/1999/xhtml" style="display: table-cell; white-space: nowrap; line-height: 1.5; max-width: 200px; text-align: center;"><span class="nodeLabel"><p>LevelExchangeService</p></span></div></foreignObject></g></g><g class="node default" id="my-svg-flowchart-Modell-17" data-look="classic" transform="translate(861.4973958333334, 573)"><rect class="basic label-container" style="" x="-77.0703125" y="-27" width="154.140625" height="54"/><g class="label" style="" transform="translate(-47.0703125, -12)"><rect/><foreignObject width="94.140625" height="24"><div xmlns="http://www.w3.org/1999/xhtml" style="display: table-cell; white-space: nowrap; line-height: 1.5; max-width: 200px; text-align: center;"><span class="nodeLabel"><p>ProjectModel</p></span></div></foreignObject></g></g><g class="node default" id="my-svg-flowchart-Geometrie-19" data-look="classic" transform="translate(1136.171875, 211.60000000000002)"><rect class="basic label-container" style="" x="-83.875" y="-27" width="167.75" height="54"/><g class="label" style="" transform="translate(-53.875, -12)"><rect/><foreignObject width="107.75" height="24"><div xmlns="http://www.w3.org/1999/xhtml" style="display: table-cell; white-space: nowrap; line-height: 1.5; max-width: 200px; text-align: center;"><span class="nodeLabel"><p>Geometriekern</p></span></div></foreignObject></g></g><g class="node default" id="my-svg-flowchart-Dxf-27" data-look="classic" transform="translate(1172.6484375, 484)"><rect class="basic label-container" style="" x="-120.3515625" y="-27" width="240.703125" height="54"/><g class="label" style="" transform="translate(-90.3515625, -12)"><rect/><foreignObject width="180.703125" height="24"><div xmlns="http://www.w3.org/1999/xhtml" style="display: table-cell; white-space: nowrap; line-height: 1.5; max-width: 200px; text-align: center;"><span class="nodeLabel"><p>DxfLevelExchangeService</p></span></div></foreignObject></g></g><g class="node default" id="my-svg-flowchart-Etage-29" data-look="classic" transform="translate(1220.1796875, 573)"><rect class="basic label-container" style="" x="-49.0546875" y="-27" width="98.109375" height="54"/><g class="label" style="" transform="translate(-19.0546875, -12)"><rect/><foreignObject width="38.109375" height="24"><div xmlns="http://www.w3.org/1999/xhtml" style="display: table-cell; white-space: nowrap; line-height: 1.5; max-width: 200px; text-align: center;"><span class="nodeLabel"><p>Level</p></span></div></foreignObject></g></g><g class="node default" id="my-svg-flowchart-Wand-31" data-look="classic" transform="translate(1425.796875, 235)"><rect class="basic label-container" style="" x="-45.296875" y="-27" width="90.59375" height="54"/><g class="label" style="" transform="translate(-15.296875, -12)"><rect/><foreignObject width="30.59375" height="24"><div xmlns="http://www.w3.org/1999/xhtml" style="display: table-cell; white-space: nowrap; line-height: 1.5; max-width: 200px; text-align: center;"><span class="nodeLabel"><p>Wall</p></span></div></foreignObject></g></g><g class="node default" id="my-svg-flowchart-Raum-33" data-look="classic" transform="translate(1430.0625, 324)"><rect class="basic label-container" style="" x="-49.5625" y="-27" width="99.125" height="54"/><g class="label" style="" transform="translate(-19.5625, -12)"><rect/><foreignObject width="39.125" height="24"><div xmlns="http://www.w3.org/1999/xhtml" style="display: table-cell; white-space: nowrap; line-height: 1.5; max-width: 200px; text-align: center;"><span class="nodeLabel"><p>Room</p></span></div></foreignObject></g></g><g class="node default" id="my-svg-flowchart-Tuer-35" data-look="classic" transform="translate(1427.1015625, 413)"><rect class="basic label-container" style="" x="-46.6015625" y="-27" width="93.203125" height="54"/><g class="label" style="" transform="translate(-16.6015625, -12)"><rect/><foreignObject width="33.203125" height="24"><div xmlns="http://www.w3.org/1999/xhtml" style="display: table-cell; white-space: nowrap; line-height: 1.5; max-width: 200px; text-align: center;"><span class="nodeLabel"><p>Door</p></span></div></foreignObject></g></g><g class="node default" id="my-svg-flowchart-Fenster-37" data-look="classic" transform="translate(1468.1171875, 502)"><rect class="basic label-container" style="" x="-87.6171875" y="-27" width="175.234375" height="54"/><g class="label" style="" transform="translate(-57.6171875, -12)"><rect/><foreignObject width="115.234375" height="24"><div xmlns="http://www.w3.org/1999/xhtml" style="display: table-cell; white-space: nowrap; line-height: 1.5; max-width: 200px; text-align: center;"><span class="nodeLabel"><p>WindowElement</p></span></div></foreignObject></g></g><g class="node default" id="my-svg-flowchart-Treppe-39" data-look="classic" transform="translate(1442.8828125, 591)"><rect class="basic label-container" style="" x="-62.3828125" y="-27" width="124.765625" height="54"/><g class="label" style="" transform="translate(-32.3828125, -12)"><rect/><foreignObject width="64.765625" height="24"><div xmlns="http://www.w3.org/1999/xhtml" style="display: table-cell; white-space: nowrap; line-height: 1.5; max-width: 200px; text-align: center;"><span class="nodeLabel"><p>Staircase</p></span></div></foreignObject></g></g><g class="node default" id="my-svg-flowchart-Build-40" data-look="classic" transform="translate(110.09375, 568.5)"><rect class="basic label-container" style="" x="-98.09375" y="-27" width="196.1875" height="54"/><g class="label" style="" transform="translate(-68.09375, -12)"><rect/><foreignObject width="136.1875" height="24"><div xmlns="http://www.w3.org/1999/xhtml" style="display: table-cell; white-space: nowrap; line-height: 1.5; max-width: 200px; text-align: center;"><span class="nodeLabel"><p>Gradle und JaCoCo</p></span></div></foreignObject></g></g></g><g class="edges edgePaths"><path d="M208.188,461.5L256.688,461.5" id="my-svg-L_Benutzer_UI_0_0" class="edge-thickness-normal edge-pattern-solid edge-thickness-normal edge-pattern-solid flowchart-link" style=";" data-edge="true" data-et="edge" data-id="L_Benutzer_UI_0_0" data-points="W3sieCI6MjA4LjE4NzUsInkiOjQ2MS41fSx7IngiOjI2MC42ODc1LCJ5Ijo0NjEuNX1d" data-look="classic" marker-end="url(#my-svg_flowchart-elk-pointEnd)"/><path d="M453.906,470.5L484.906,470.5" id="my-svg-L_UI_Zeichensteuerung_0_0" class="edge-thickness-normal edge-pattern-solid edge-thickness-normal edge-pattern-solid flowchart-link" style=";" data-edge="true" data-et="edge" data-id="L_UI_Zeichensteuerung_0_0" data-points="W3sieCI6NDUzLjkwNjI1LCJ5Ijo0NzAuNX0seyJ4Ijo0ODguOTA2MjUsInkiOjQ3MC41fV0=" data-look="classic" marker-end="url(#my-svg_flowchart-elk-pointEnd)"/><path d="M648.813,450.25L650.896,450.25C652.979,450.25,657.146,450.25,659.701,449.888C662.255,449.526,663.198,448.802,664.031,447.969C664.865,447.136,665.589,446.193,665.951,380.346C666.313,314.5,666.313,183.75,666.674,117.904C667.036,52.057,667.76,51.114,668.594,50.281C669.427,49.448,670.37,48.724,688.161,48.362C705.953,48,740.594,48,757.914,48L775.234,48" id="my-svg-L_Zeichensteuerung_Drafting_0_0" class="edge-thickness-normal edge-pattern-solid edge-thickness-normal edge-pattern-solid flowchart-link" style=";" data-edge="true" data-et="edge" data-id="L_Zeichensteuerung_Drafting_0_0" data-points="W3sieCI6NjQ4LjgxMjUsInkiOjQ1MC4yNX0seyJ4Ijo2NjYuMzEyNSwieSI6NDUwLjI1fSx7IngiOjY2Ni4zMTI1LCJ5Ijo0OH0seyJ4Ijo3NzkuMjM0Mzc1LCJ5Ijo0OH1d" data-look="classic" marker-end="url(#my-svg_flowchart-elk-pointEnd)"/><path d="M648.813,457L653.813,457C658.813,457,668.813,457,674.284,456.638C679.755,456.276,680.698,455.552,681.531,454.719C682.365,453.886,683.089,452.943,683.451,399.305C683.813,345.667,683.813,239.333,684.174,185.695C684.536,132.057,685.26,131.114,686.094,130.281C686.927,129.448,687.87,128.724,706.885,128.362C725.901,128,762.99,128,781.534,128L800.078,128" id="my-svg-L_Zeichensteuerung_Snap_0_0" class="edge-thickness-normal edge-pattern-solid edge-thickness-normal edge-pattern-solid flowchart-link" style=";" data-edge="true" data-et="edge" data-id="L_Zeichensteuerung_Snap_0_0" data-points="W3sieCI6NjQ4LjgxMjUsInkiOjQ1N30seyJ4Ijo2ODMuODEyNSwieSI6NDU3fSx7IngiOjY4My44MTI1LCJ5IjoxMjh9LHsieCI6ODA0LjA3ODEyNSwieSI6MTI4fV0=" data-look="classic" marker-end="url(#my-svg_flowchart-elk-pointEnd)"/><path d="M648.813,463.75L656.729,463.75C664.646,463.75,680.479,463.75,688.867,463.388C697.255,463.026,698.198,462.302,699.031,461.469C699.865,460.636,700.589,459.693,700.951,419.763C701.313,379.833,701.313,300.917,701.674,260.987C702.036,221.057,702.76,220.114,703.594,219.281C704.427,218.448,705.37,217.724,717.59,217.362C729.81,217,753.307,217,765.056,217L776.805,217" id="my-svg-L_Zeichensteuerung_Editing_0_0" class="edge-thickness-normal edge-pattern-solid edge-thickness-normal edge-pattern-solid flowchart-link" style=";" data-edge="true" data-et="edge" data-id="L_Zeichensteuerung_Editing_0_0" data-points="W3sieCI6NjQ4LjgxMjUsInkiOjQ2My43NX0seyJ4Ijo3MDEuMzEyNSwieSI6NDYzLjc1fSx7IngiOjcwMS4zMTI1LCJ5IjoyMTd9LHsieCI6NzgwLjgwNDY4NzUsInkiOjIxN31d" data-look="classic" marker-end="url(#my-svg_flowchart-elk-pointEnd)"/><path d="M648.813,470.5L659.646,470.5C670.479,470.5,692.146,470.5,703.451,470.138C714.755,469.776,715.698,469.052,716.531,468.219C717.365,467.386,718.089,466.443,718.451,440.221C718.813,414,718.813,362.5,719.174,336.279C719.536,310.057,720.26,309.114,721.094,308.281C721.927,307.448,722.87,306.724,727.674,306.362C732.479,306,741.146,306,745.479,306L749.813,306" id="my-svg-L_Zeichensteuerung_Openings_0_0" class="edge-thickness-normal edge-pattern-solid edge-thickness-normal edge-pattern-solid flowchart-link" style=";" data-edge="true" data-et="edge" data-id="L_Zeichensteuerung_Openings_0_0" data-points="W3sieCI6NjQ4LjgxMjUsInkiOjQ3MC41fSx7IngiOjcxOC44MTI1LCJ5Ijo0NzAuNX0seyJ4Ijo3MTguODEyNSwieSI6MzA2fSx7IngiOjc1My44MTI1LCJ5IjozMDZ9XQ==" data-look="classic" marker-end="url(#my-svg_flowchart-elk-pointEnd)"/><path d="M648.813,477.25L662.563,477.25C676.313,477.25,703.813,477.25,718.034,476.888C732.255,476.526,733.198,475.802,734.031,474.969C734.865,474.136,735.589,473.193,735.951,460.68C736.313,448.167,736.313,424.083,736.674,411.57C737.036,399.057,737.76,398.114,738.594,397.281C739.427,396.448,740.37,395.724,742.258,395.362C744.146,395,746.979,395,748.396,395L749.813,395" id="my-svg-L_Zeichensteuerung_Parts_0_0" class="edge-thickness-normal edge-pattern-solid edge-thickness-normal edge-pattern-solid flowchart-link" style=";" data-edge="true" data-et="edge" data-id="L_Zeichensteuerung_Parts_0_0" data-points="W3sieCI6NjQ4LjgxMjUsInkiOjQ3Ny4yNX0seyJ4Ijo3MzYuMzEyNSwieSI6NDc3LjI1fSx7IngiOjczNi4zMTI1LCJ5IjozOTV9LHsieCI6NzUzLjgxMjUsInkiOjM5NX1d" data-look="classic" marker-end="url(#my-svg_flowchart-elk-pointEnd)"/><path d="M648.813,484L764.328,484" id="my-svg-L_Zeichensteuerung_Exchange_0_0" class="edge-thickness-normal edge-pattern-solid edge-thickness-normal edge-pattern-solid flowchart-link" style=";" data-edge="true" data-et="edge" data-id="L_Zeichensteuerung_Exchange_0_0" data-points="W3sieCI6NjQ4LjgxMjUsInkiOjQ4NH0seyJ4Ijo3NjguMzI4MTI1LCJ5Ijo0ODR9XQ==" data-look="classic" marker-end="url(#my-svg_flowchart-elk-pointEnd)"/><path d="M648.813,490.75L650.896,490.75C652.979,490.75,657.146,490.75,659.701,491.112C662.255,491.474,663.198,492.198,664.031,493.031C664.865,493.864,665.589,494.807,665.951,505.82C666.313,516.833,666.313,537.917,666.674,548.93C667.036,559.943,667.76,560.886,668.594,561.719C669.427,562.552,670.37,563.276,689.027,563.638C707.684,564,744.056,564,762.241,564L780.427,564" id="my-svg-L_Zeichensteuerung_Modell_0_0" class="edge-thickness-normal edge-pattern-solid edge-thickness-normal edge-pattern-solid flowchart-link" style=";" data-edge="true" data-et="edge" data-id="L_Zeichensteuerung_Modell_0_0" data-points="W3sieCI6NjQ4LjgxMjUsInkiOjQ5MC43NX0seyJ4Ijo2NjYuMzEyNSwieSI6NDkwLjc1fSx7IngiOjY2Ni4zMTI1LCJ5Ijo1NjR9LHsieCI6Nzg0LjQyNzA4MzMzMzMzMzQsInkiOjU2NH1d" data-look="classic" marker-end="url(#my-svg_flowchart-elk-pointEnd)"/><path d="M948.953,39L962.427,39C975.901,39,1002.849,39,1016.794,39.362C1030.74,39.724,1031.682,40.448,1032.516,41.281C1033.349,42.114,1034.073,43.057,1034.435,67.929C1034.797,92.8,1034.797,141.6,1035.159,166.471C1035.521,191.343,1036.245,192.286,1037.078,193.119C1037.911,193.952,1038.854,194.676,1040.742,195.038C1042.63,195.4,1045.464,195.4,1046.88,195.4L1048.297,195.4" id="my-svg-L_Drafting_Geometrie_0_0" class="edge-thickness-normal edge-pattern-solid edge-thickness-normal edge-pattern-solid flowchart-link" style=";" data-edge="true" data-et="edge" data-id="L_Drafting_Geometrie_0_0" data-points="W3sieCI6OTQ4Ljk1MzEyNSwieSI6Mzl9LHsieCI6MTAzNC43OTY4NzUsInkiOjM5fSx7IngiOjEwMzQuNzk2ODc1LCJ5IjoxOTUuNDAwMDAwMDAwMDAwMDN9LHsieCI6MTA1Mi4yOTY4NzUsInkiOjE5NS40MDAwMDAwMDAwMDAwM31d" data-look="classic" marker-end="url(#my-svg_flowchart-elk-pointEnd)"/><path d="M949.531,128L959.992,128C970.453,128,991.375,128,1002.307,128.362C1013.24,128.724,1014.182,129.448,1015.016,130.281C1015.849,131.114,1016.573,132.057,1016.935,143.895C1017.297,155.733,1017.297,178.467,1017.659,190.305C1018.021,202.143,1018.745,203.086,1019.578,203.919C1020.411,204.752,1021.354,205.476,1026.159,205.838C1030.964,206.2,1039.63,206.2,1043.964,206.2L1048.297,206.2" id="my-svg-L_Snap_Geometrie_0_0" class="edge-thickness-normal edge-pattern-solid edge-thickness-normal edge-pattern-solid flowchart-link" style=";" data-edge="true" data-et="edge" data-id="L_Snap_Geometrie_0_0" data-points="W3sieCI6OTQ5LjUzMTI1LCJ5IjoxMjh9LHsieCI6MTAxNy4yOTY4NzUsInkiOjEyOH0seyJ4IjoxMDE3LjI5Njg3NSwieSI6MjA2LjIwMDAwMDAwMDAwMDA1fSx7IngiOjEwNTIuMjk2ODc1LCJ5IjoyMDYuMjAwMDAwMDAwMDAwMDV9XQ==" data-look="classic" marker-end="url(#my-svg_flowchart-elk-pointEnd)"/><path d="M972.805,217L1048.297,217" id="my-svg-L_Editing_Geometrie_0_0" class="edge-thickness-normal edge-pattern-solid edge-thickness-normal edge-pattern-solid flowchart-link" style=";" data-edge="true" data-et="edge" data-id="L_Editing_Geometrie_0_0" data-points="W3sieCI6OTcyLjgwNDY4NzUsInkiOjIxN30seyJ4IjoxMDUyLjI5Njg3NSwieSI6MjE3fV0=" data-look="classic" marker-end="url(#my-svg_flowchart-elk-pointEnd)"/><path d="M999.797,306L1001.88,306C1003.964,306,1008.13,306,1010.685,305.638C1013.24,305.276,1014.182,304.552,1015.016,303.719C1015.849,302.886,1016.573,301.943,1016.935,290.105C1017.297,278.267,1017.297,255.533,1017.659,243.695C1018.021,231.857,1018.745,230.914,1019.578,230.081C1020.411,229.248,1021.354,228.524,1026.159,228.162C1030.964,227.8,1039.63,227.8,1043.964,227.8L1048.297,227.8" id="my-svg-L_Openings_Geometrie_0_0" class="edge-thickness-normal edge-pattern-solid edge-thickness-normal edge-pattern-solid flowchart-link" style=";" data-edge="true" data-et="edge" data-id="L_Openings_Geometrie_0_0" data-points="W3sieCI6OTk5Ljc5Njg3NSwieSI6MzA2fSx7IngiOjEwMTcuMjk2ODc1LCJ5IjozMDZ9LHsieCI6MTAxNy4yOTY4NzUsInkiOjIyNy44fSx7IngiOjEwNTIuMjk2ODc1LCJ5IjoyMjcuOH1d" data-look="classic" marker-end="url(#my-svg_flowchart-elk-pointEnd)"/><path d="M985.281,484L1048.297,484" id="my-svg-L_Exchange_Dxf_0_0" class="edge-thickness-normal edge-pattern-solid edge-thickness-normal edge-pattern-solid flowchart-link" style=";" data-edge="true" data-et="edge" data-id="L_Exchange_Dxf_0_0" data-points="W3sieCI6OTg1LjI4MTI1LCJ5Ijo0ODR9LHsieCI6MTA1Mi4yOTY4NzUsInkiOjQ4NH1d" data-look="classic" marker-end="url(#my-svg_flowchart-elk-pointEnd)"/><path d="M938.568,573L1167.125,573" id="my-svg-L_Modell_Etage_0_0" class="edge-thickness-normal edge-pattern-solid edge-thickness-normal edge-pattern-solid flowchart-link" style=";" data-edge="true" data-et="edge" data-id="L_Modell_Etage_0_0" data-points="W3sieCI6OTM4LjU2NzcwODMzMzMzMzQsInkiOjU3M30seyJ4IjoxMTcxLjEyNSwieSI6NTczfV0=" data-look="classic" marker-end="url(#my-svg_flowchart-elk-pointEnd)"/><path d="M1269.234,555L1275.279,555C1281.323,555,1293.411,555,1299.927,554.638C1306.443,554.276,1307.386,553.552,1308.219,552.719C1309.052,551.886,1309.776,550.943,1310.138,498.805C1310.5,446.667,1310.5,343.333,1310.862,291.195C1311.224,239.057,1311.948,238.114,1312.781,237.281C1313.614,236.448,1314.557,235.724,1325.195,235.362C1335.833,235,1356.167,235,1366.333,235L1376.5,235" id="my-svg-L_Etage_Wand_0_0" class="edge-thickness-normal edge-pattern-solid edge-thickness-normal edge-pattern-solid flowchart-link" style=";" data-edge="true" data-et="edge" data-id="L_Etage_Wand_0_0" data-points="W3sieCI6MTI2OS4yMzQzNzUsInkiOjU1NX0seyJ4IjoxMzEwLjUsInkiOjU1NX0seyJ4IjoxMzEwLjUsInkiOjIzNX0seyJ4IjoxMzgwLjUsInkiOjIzNX1d" data-look="classic" marker-end="url(#my-svg_flowchart-elk-pointEnd)"/><path d="M1269.234,564L1278.195,564C1287.156,564,1305.078,564,1314.51,563.638C1323.943,563.276,1324.886,562.552,1325.719,561.719C1326.552,560.886,1327.276,559.943,1327.638,521.138C1328,482.333,1328,405.667,1328.362,366.862C1328.724,328.057,1329.448,327.114,1330.281,326.281C1331.114,325.448,1332.057,324.724,1339.779,324.362C1347.5,324,1362,324,1369.25,324L1376.5,324" id="my-svg-L_Etage_Raum_0_0" class="edge-thickness-normal edge-pattern-solid edge-thickness-normal edge-pattern-solid flowchart-link" style=";" data-edge="true" data-et="edge" data-id="L_Etage_Raum_0_0" data-points="W3sieCI6MTI2OS4yMzQzNzUsInkiOjU2NH0seyJ4IjoxMzI4LCJ5Ijo1NjR9LHsieCI6MTMyOCwieSI6MzI0fSx7IngiOjEzODAuNSwieSI6MzI0fV0=" data-look="classic" marker-end="url(#my-svg_flowchart-elk-pointEnd)"/><path d="M1269.234,573L1281.112,573C1292.99,573,1316.745,573,1329.094,572.638C1341.443,572.276,1342.386,571.552,1343.219,570.719C1344.052,569.886,1344.776,568.943,1345.138,543.471C1345.5,518,1345.5,468,1345.862,442.529C1346.224,417.057,1346.948,416.114,1347.781,415.281C1348.614,414.448,1349.557,413.724,1354.362,413.362C1359.167,413,1367.833,413,1372.167,413L1376.5,413" id="my-svg-L_Etage_Tuer_0_0" class="edge-thickness-normal edge-pattern-solid edge-thickness-normal edge-pattern-solid flowchart-link" style=";" data-edge="true" data-et="edge" data-id="L_Etage_Tuer_0_0" data-points="W3sieCI6MTI2OS4yMzQzNzUsInkiOjU3M30seyJ4IjoxMzQ1LjUsInkiOjU3M30seyJ4IjoxMzQ1LjUsInkiOjQxM30seyJ4IjoxMzgwLjUsInkiOjQxM31d" data-look="classic" marker-end="url(#my-svg_flowchart-elk-pointEnd)"/><path d="M1269.234,582L1284.029,582C1298.823,582,1328.411,582,1343.677,581.638C1358.943,581.276,1359.886,580.552,1360.719,579.719C1361.552,578.886,1362.276,577.943,1362.638,565.805C1363,553.667,1363,530.333,1363.362,518.195C1363.724,506.057,1364.448,505.114,1365.281,504.281C1366.114,503.448,1367.057,502.724,1368.945,502.362C1370.833,502,1373.667,502,1375.083,502L1376.5,502" id="my-svg-L_Etage_Fenster_0_0" class="edge-thickness-normal edge-pattern-solid edge-thickness-normal edge-pattern-solid flowchart-link" style=";" data-edge="true" data-et="edge" data-id="L_Etage_Fenster_0_0" data-points="W3sieCI6MTI2OS4yMzQzNzUsInkiOjU4Mn0seyJ4IjoxMzYzLCJ5Ijo1ODJ9LHsieCI6MTM2MywieSI6NTAyfSx7IngiOjEzODAuNSwieSI6NTAyfV0=" data-look="classic" marker-end="url(#my-svg_flowchart-elk-pointEnd)"/><path d="M1269.234,591L1376.5,591" id="my-svg-L_Etage_Treppe_0_0" class="edge-thickness-normal edge-pattern-solid edge-thickness-normal edge-pattern-solid flowchart-link" style=";" data-edge="true" data-et="edge" data-id="L_Etage_Treppe_0_0" data-points="W3sieCI6MTI2OS4yMzQzNzUsInkiOjU5MX0seyJ4IjoxMzgwLjUsInkiOjU5MX1d" data-look="classic" marker-end="url(#my-svg_flowchart-elk-pointEnd)"/><path d="M208.188,568.5L213.188,568.5C218.188,568.5,228.188,568.5,233.659,568.138C239.13,567.776,240.073,567.052,240.906,566.219C241.74,565.386,242.464,564.443,242.826,550.805C243.188,537.167,243.188,510.833,243.549,497.195C243.911,483.557,244.635,482.614,245.469,481.781C246.302,480.948,247.245,480.224,249.133,479.862C251.021,479.5,253.854,479.5,255.271,479.5L256.688,479.5" id="my-svg-L_Build_UI_0_0" class="edge-thickness-normal edge-pattern-solid edge-thickness-normal edge-pattern-solid flowchart-link" style=";" data-edge="true" data-et="edge" data-id="L_Build_UI_0_0" data-points="W3sieCI6MjA4LjE4NzUsInkiOjU2OC41fSx7IngiOjI0My4xODc1LCJ5Ijo1NjguNX0seyJ4IjoyNDMuMTg3NSwieSI6NDc5LjV9LHsieCI6MjYwLjY4NzUsInkiOjQ3OS41fV0=" data-look="classic" marker-end="url(#my-svg_flowchart-elk-pointEnd)"/><path d="M208.188,555L210.271,555C212.354,555,216.521,555,219.076,554.638C221.63,554.276,222.573,553.552,223.406,552.719C224.24,551.886,224.964,550.943,225.326,464.638C225.688,378.333,225.688,206.667,226.049,120.362C226.411,34.057,227.135,33.114,227.969,32.281C228.802,31.448,229.745,30.724,251.318,30.362C272.891,30,315.094,30,371.456,30C427.818,30,498.339,30,567.995,30C637.651,30,706.443,30,740.839,30L775.234,30" id="my-svg-L_Build_Drafting_0_0" class="edge-thickness-normal edge-pattern-solid edge-thickness-normal edge-pattern-solid flowchart-link" style=";" data-edge="true" data-et="edge" data-id="L_Build_Drafting_0_0" data-points="W3sieCI6MjA4LjE4NzUsInkiOjU1NX0seyJ4IjoyMjUuNjg3NSwieSI6NTU1fSx7IngiOjIyNS42ODc1LCJ5IjozMH0seyJ4IjozNTcuMjk2ODc1LCJ5IjozMH0seyJ4Ijo1NjguODU5Mzc1LCJ5IjozMH0seyJ4Ijo3NzkuMjM0Mzc1LCJ5IjozMH1d" data-look="classic" marker-end="url(#my-svg_flowchart-elk-pointEnd)"/><path d="M208.188,582L233.039,582C257.891,582,307.594,582,367.706,582C427.818,582,498.339,582,568.86,582C639.382,582,709.905,582,745.166,582L780.427,582" id="my-svg-L_Build_Modell_0_0" class="edge-thickness-normal edge-pattern-solid edge-thickness-normal edge-pattern-solid flowchart-link" style=";" data-edge="true" data-et="edge" data-id="L_Build_Modell_0_0" data-points="W3sieCI6MjA4LjE4NzUsInkiOjU4Mn0seyJ4IjozNTcuMjk2ODc1LCJ5Ijo1ODJ9LHsieCI6NTY4Ljg1OTM3NSwieSI6NTgyfSx7IngiOjc4NC40MjcwODMzMzMzMzM0LCJ5Ijo1ODJ9XQ==" data-look="classic" marker-end="url(#my-svg_flowchart-elk-pointEnd)"/></g><g class="edgeLabels"><g class="edgeLabel"><g class="label" data-id="L_Benutzer_UI_0_0" transform="translate(0, 0)"><foreignObject width="0" height="0"><div xmlns="http://www.w3.org/1999/xhtml" class="labelBkg" style="display: table-cell; white-space: nowrap; line-height: 1.5; max-width: 200px; text-align: center;"><span class="edgeLabel"></span></div></foreignObject></g></g><g class="edgeLabel"><g class="label" data-id="L_UI_Zeichensteuerung_0_0" transform="translate(0, 0)"><foreignObject width="0" height="0"><div xmlns="http://www.w3.org/1999/xhtml" class="labelBkg" style="display: table-cell; white-space: nowrap; line-height: 1.5; max-width: 200px; text-align: center;"><span class="edgeLabel"></span></div></foreignObject></g></g><g class="edgeLabel"><g class="label" data-id="L_Zeichensteuerung_Drafting_0_0" transform="translate(0, 0)"><foreignObject width="0" height="0"><div xmlns="http://www.w3.org/1999/xhtml" class="labelBkg" style="display: table-cell; white-space: nowrap; line-height: 1.5; max-width: 200px; text-align: center;"><span class="edgeLabel"></span></div></foreignObject></g></g><g class="edgeLabel"><g class="label" data-id="L_Zeichensteuerung_Snap_0_0" transform="translate(0, 0)"><foreignObject width="0" height="0"><div xmlns="http://www.w3.org/1999/xhtml" class="labelBkg" style="display: table-cell; white-space: nowrap; line-height: 1.5; max-width: 200px; text-align: center;"><span class="edgeLabel"></span></div></foreignObject></g></g><g class="edgeLabel"><g class="label" data-id="L_Zeichensteuerung_Editing_0_0" transform="translate(0, 0)"><foreignObject width="0" height="0"><div xmlns="http://www.w3.org/1999/xhtml" class="labelBkg" style="display: table-cell; white-space: nowrap; line-height: 1.5; max-width: 200px; text-align: center;"><span class="edgeLabel"></span></div></foreignObject></g></g><g class="edgeLabel"><g class="label" data-id="L_Zeichensteuerung_Openings_0_0" transform="translate(0, 0)"><foreignObject width="0" height="0"><div xmlns="http://www.w3.org/1999/xhtml" class="labelBkg" style="display: table-cell; white-space: nowrap; line-height: 1.5; max-width: 200px; text-align: center;"><span class="edgeLabel"></span></div></foreignObject></g></g><g class="edgeLabel"><g class="label" data-id="L_Zeichensteuerung_Parts_0_0" transform="translate(0, 0)"><foreignObject width="0" height="0"><div xmlns="http://www.w3.org/1999/xhtml" class="labelBkg" style="display: table-cell; white-space: nowrap; line-height: 1.5; max-width: 200px; text-align: center;"><span class="edgeLabel"></span></div></foreignObject></g></g><g class="edgeLabel"><g class="label" data-id="L_Zeichensteuerung_Exchange_0_0" transform="translate(0, 0)"><foreignObject width="0" height="0"><div xmlns="http://www.w3.org/1999/xhtml" class="labelBkg" style="display: table-cell; white-space: nowrap; line-height: 1.5; max-width: 200px; text-align: center;"><span class="edgeLabel"></span></div></foreignObject></g></g><g class="edgeLabel"><g class="label" data-id="L_Zeichensteuerung_Modell_0_0" transform="translate(0, 0)"><foreignObject width="0" height="0"><div xmlns="http://www.w3.org/1999/xhtml" class="labelBkg" style="display: table-cell; white-space: nowrap; line-height: 1.5; max-width: 200px; text-align: center;"><span class="edgeLabel"></span></div></foreignObject></g></g><g class="edgeLabel"><g class="label" data-id="L_Drafting_Geometrie_0_0" transform="translate(0, 0)"><foreignObject width="0" height="0"><div xmlns="http://www.w3.org/1999/xhtml" class="labelBkg" style="display: table-cell; white-space: nowrap; line-height: 1.5; max-width: 200px; text-align: center;"><span class="edgeLabel"></span></div></foreignObject></g></g><g class="edgeLabel"><g class="label" data-id="L_Snap_Geometrie_0_0" transform="translate(0, 0)"><foreignObject width="0" height="0"><div xmlns="http://www.w3.org/1999/xhtml" class="labelBkg" style="display: table-cell; white-space: nowrap; line-height: 1.5; max-width: 200px; text-align: center;"><span class="edgeLabel"></span></div></foreignObject></g></g><g class="edgeLabel"><g class="label" data-id="L_Editing_Geometrie_0_0" transform="translate(0, 0)"><foreignObject width="0" height="0"><div xmlns="http://www.w3.org/1999/xhtml" class="labelBkg" style="display: table-cell; white-space: nowrap; line-height: 1.5; max-width: 200px; text-align: center;"><span class="edgeLabel"></span></div></foreignObject></g></g><g class="edgeLabel"><g class="label" data-id="L_Openings_Geometrie_0_0" transform="translate(0, 0)"><foreignObject width="0" height="0"><div xmlns="http://www.w3.org/1999/xhtml" class="labelBkg" style="display: table-cell; white-space: nowrap; line-height: 1.5; max-width: 200px; text-align: center;"><span class="edgeLabel"></span></div></foreignObject></g></g><g class="edgeLabel"><g class="label" data-id="L_Exchange_Dxf_0_0" transform="translate(0, 0)"><foreignObject width="0" height="0"><div xmlns="http://www.w3.org/1999/xhtml" class="labelBkg" style="display: table-cell; white-space: nowrap; line-height: 1.5; max-width: 200px; text-align: center;"><span class="edgeLabel"></span></div></foreignObject></g></g><g class="edgeLabel"><g class="label" data-id="L_Modell_Etage_0_0" transform="translate(0, 0)"><foreignObject width="0" height="0"><div xmlns="http://www.w3.org/1999/xhtml" class="labelBkg" style="display: table-cell; white-space: nowrap; line-height: 1.5; max-width: 200px; text-align: center;"><span class="edgeLabel"></span></div></foreignObject></g></g><g class="edgeLabel"><g class="label" data-id="L_Etage_Wand_0_0" transform="translate(0, 0)"><foreignObject width="0" height="0"><div xmlns="http://www.w3.org/1999/xhtml" class="labelBkg" style="display: table-cell; white-space: nowrap; line-height: 1.5; max-width: 200px; text-align: center;"><span class="edgeLabel"></span></div></foreignObject></g></g><g class="edgeLabel"><g class="label" data-id="L_Etage_Raum_0_0" transform="translate(0, 0)"><foreignObject width="0" height="0"><div xmlns="http://www.w3.org/1999/xhtml" class="labelBkg" style="display: table-cell; white-space: nowrap; line-height: 1.5; max-width: 200px; text-align: center;"><span class="edgeLabel"></span></div></foreignObject></g></g><g class="edgeLabel"><g class="label" data-id="L_Etage_Tuer_0_0" transform="translate(0, 0)"><foreignObject width="0" height="0"><div xmlns="http://www.w3.org/1999/xhtml" class="labelBkg" style="display: table-cell; white-space: nowrap; line-height: 1.5; max-width: 200px; text-align: center;"><span class="edgeLabel"></span></div></foreignObject></g></g><g class="edgeLabel"><g class="label" data-id="L_Etage_Fenster_0_0" transform="translate(0, 0)"><foreignObject width="0" height="0"><div xmlns="http://www.w3.org/1999/xhtml" class="labelBkg" style="display: table-cell; white-space: nowrap; line-height: 1.5; max-width: 200px; text-align: center;"><span class="edgeLabel"></span></div></foreignObject></g></g><g class="edgeLabel"><g class="label" data-id="L_Etage_Treppe_0_0" transform="translate(0, 0)"><foreignObject width="0" height="0"><div xmlns="http://www.w3.org/1999/xhtml" class="labelBkg" style="display: table-cell; white-space: nowrap; line-height: 1.5; max-width: 200px; text-align: center;"><span class="edgeLabel"></span></div></foreignObject></g></g><g class="edgeLabel"><g class="label" data-id="L_Build_UI_0_0" transform="translate(0, 0)"><foreignObject width="0" height="0"><div xmlns="http://www.w3.org/1999/xhtml" class="labelBkg" style="display: table-cell; white-space: nowrap; line-height: 1.5; max-width: 200px; text-align: center;"><span class="edgeLabel"></span></div></foreignObject></g></g><g class="edgeLabel"><g class="label" data-id="L_Build_Drafting_0_0" transform="translate(0, 0)"><foreignObject width="0" height="0"><div xmlns="http://www.w3.org/1999/xhtml" class="labelBkg" style="display: table-cell; white-space: nowrap; line-height: 1.5; max-width: 200px; text-align: center;"><span class="edgeLabel"></span></div></foreignObject></g></g><g class="edgeLabel"><g class="label" data-id="L_Build_Modell_0_0" transform="translate(0, 0)"><foreignObject width="0" height="0"><div xmlns="http://www.w3.org/1999/xhtml" class="labelBkg" style="display: table-cell; white-space: nowrap; line-height: 1.5; max-width: 200px; text-align: center;"><span class="edgeLabel"></span></div></foreignObject></g></g></g></svg>