<svg height="442" id="my-svg" width="1434" xmlns="http://www.w3.org/2000/svg" xmlns:xlink="http://www.w3.org/1999/xlink" class="flowchart" style="background-color: white;" viewBox="4 4 1434.28125 442.20001220703125" role="graphics-document document" aria-roledescription="flowchart-elk"><style>#my-svg{font-family:"trebuchet ms",verdana,arial,sans-serif;font-size:16px;fill:#333;}@keyframes edge-animation-frame{from{stroke-dashoffset:0;}}@keyframes dash{to{stroke-dashoffset:0;}}#my-svg .edge-animation-slow{stroke-dasharray:9,5!important;stroke-dashoffset:900;animation:dash 50s linear infinite;stroke-linecap:round;}#my-svg .edge-animation-fast{stroke-dasharray:9,5!important;stroke-dashoffset:900;animation:dash 20s linear infinite;stroke-linecap:round;}#my-svg .error-icon{fill:#552222;}#my-svg .error-text{fill:#552222;stroke:#552222;}#my-svg .edge-thickness-normal{stroke-width:1px;}#my-svg .edge-thickness-thick{stroke-width:3.5px;}#my-svg .edge-pattern-solid{stroke-dasharray:0;}#my-svg .edge-thickness-invisible{stroke-width:0;fill:none;}#my-svg .edge-pattern-dashed{stroke-dasharray:3;}#my-svg .edge-pattern-dotted{stroke-dasharray:2;}#my-svg .marker{fill:#333333;stroke:#333333;}#my-svg .marker.cross{stroke:#333333;}#my-svg svg{font-family:"trebuchet ms",verdana,arial,sans-serif;font-size:16px;}#my-svg p{margin:0;}#my-svg .label{font-family:"trebuchet ms",verdana,arial,sans-serif;color:#333;}#my-svg .cluster-label text{fill:#333;}#my-svg .cluster-label span{color:#333;}#my-svg .cluster-label span p{background-color:transparent;}#my-svg .label text,#my-svg span{fill:#333;color:#333;}#my-svg .node rect,#my-svg .node circle,#my-svg .node ellipse,#my-svg .node polygon,#my-svg .node path{fill:#ECECFF;stroke:#9370DB;stroke-width:1px;}#my-svg .rough-node .label text,#my-svg .node .label text,#my-svg .image-shape .label,#my-svg .icon-shape .label{text-anchor:middle;}#my-svg .node .katex path{fill:#000;stroke:#000;stroke-width:1px;}#my-svg .rough-node .label,#my-svg .node .label,#my-svg .image-shape .label,#my-svg .icon-shape .label{text-align:center;}#my-svg .node.clickable{cursor:pointer;}#my-svg .root .anchor path{fill:#333333!important;stroke-width:0;stroke:#333333;}#my-svg .arrowheadPath{fill:#333333;}#my-svg .edgePath .path{stroke:#333333;stroke-width:1px;}#my-svg .flowchart-link{stroke:#333333;fill:none;}#my-svg .edgeLabel{background-color:rgba(232,232,232, 0.8);text-align:center;}#my-svg .edgeLabel p{background-color:rgba(232,232,232, 0.8);}#my-svg .edgeLabel rect{opacity:0.5;background-color:rgba(232,232,232, 0.8);fill:rgba(232,232,232, 0.8);}#my-svg .labelBkg{background-color:rgba(232, 232, 232, 0.5);}#my-svg .cluster rect{fill:#ffffde;stroke:#aaaa33;stroke-width:1px;}#my-svg .cluster text{fill:#333;}#my-svg .cluster span{color:#333;}#my-svg div.mermaidTooltip{position:absolute;text-align:center;max-width:200px;padding:2px;font-family:"trebuchet ms",verdana,arial,sans-serif;font-size:12px;background:hsl(80, 100%, 96.2745098039%);border:1px solid #aaaa33;border-radius:2px;pointer-events:none;z-index:100;}#my-svg .flowchartTitleText{text-anchor:middle;font-size:18px;fill:#333;}#my-svg rect.text{fill:none;stroke-width:0;}#my-svg .icon-shape,#my-svg .image-shape{background-color:rgba(232,232,232, 0.8);text-align:center;}#my-svg .icon-shape p,#my-svg .image-shape p{background-color:rgba(232,232,232, 0.8);padding:2px;}#my-svg .icon-shape .label rect,#my-svg .image-shape .label rect{opacity:0.5;background-color:rgba(232,232,232, 0.8);fill:rgba(232,232,232, 0.8);}#my-svg .label-icon{display:inline-block;height:1em;overflow:visible;vertical-align:-0.125em;}#my-svg .node .label-icon path{fill:currentColor;stroke:revert;stroke-width:revert;}#my-svg .node .neo-node{stroke:#9370DB;}#my-svg [data-look="neo"].node rect,#my-svg [data-look="neo"].cluster rect,#my-svg [data-look="neo"].node polygon{stroke:#9370DB;filter:drop-shadow(1px 2px 2px rgba(185, 185, 185, 1));}#my-svg [data-look="neo"].node path{stroke:#9370DB;stroke-width:1px;}#my-svg [data-look="neo"].node .outer-path{filter:drop-shadow(1px 2px 2px rgba(185, 185, 185, 1));}#my-svg [data-look="neo"].node .neo-line path{stroke:#9370DB;filter:none;}#my-svg [data-look="neo"].node circle{stroke:#9370DB;filter:drop-shadow(1px 2px 2px rgba(185, 185, 185, 1));}#my-svg [data-look="neo"].node circle .state-start{fill:#000000;}#my-svg [data-look="neo"].icon-shape .icon{fill:#9370DB;filter:drop-shadow(1px 2px 2px rgba(185, 185, 185, 1));}#my-svg [data-look="neo"].icon-shape .icon-neo path{stroke:#9370DB;filter:drop-shadow(1px 2px 2px rgba(185, 185, 185, 1));}#my-svg :root{--mermaid-font-family:"trebuchet ms",verdana,arial,sans-serif;}</style><g><marker id="my-svg_flowchart-elk-pointEnd" class="marker flowchart-elk" viewBox="0 0 10 10" refX="5" refY="5" markerUnits="userSpaceOnUse" markerWidth="8" markerHeight="8" orient="auto"><path d="M 0 0 L 10 5 L 0 10 z" class="arrowMarkerPath" style="stroke-width: 1; stroke-dasharray: 1, 0;"/></marker><marker id="my-svg_flowchart-elk-pointStart" class="marker flowchart-elk" viewBox="0 0 10 10" refX="4.5" refY="5" markerUnits="userSpaceOnUse" markerWidth="8" markerHeight="8" orient="auto"><path d="M 0 5 L 10 10 L 10 0 z" class="arrowMarkerPath" style="stroke-width: 1; stroke-dasharray: 1, 0;"/></marker><marker id="my-svg_flowchart-elk-pointEnd-margin" class="marker flowchart-elk" viewBox="0 0 11.5 14" refX="11.5" refY="7" markerUnits="userSpaceOnUse" markerWidth="10.5" markerHeight="14" orient="auto"><path d="M 0 0 L 11.5 7 L 0 14 z" class="arrowMarkerPath" style="stroke-width: 0; stroke-dasharray: 1, 0;"/></marker><marker id="my-svg_flowchart-elk-pointStart-margin" class="marker flowchart-elk" viewBox="0 0 11.5 14" refX="1" refY="7" markerUnits="userSpaceOnUse" markerWidth="11.5" markerHeight="14" orient="auto"><polygon points="0,7 11.5,14 11.5,0" class="arrowMarkerPath" style="stroke-width: 0; stroke-dasharray: 1, 0;"/></marker><marker id="my-svg_flowchart-elk-circleEnd" class="marker flowchart-elk" viewBox="0 0 10 10" refX="11" refY="5" markerUnits="userSpaceOnUse" markerWidth="11" markerHeight="11" orient="auto"><circle cx="5" cy="5" r="5" class="arrowMarkerPath" style="stroke-width: 1; stroke-dasharray: 1, 0;"/></marker><marker id="my-svg_flowchart-elk-circleStart" class="marker flowchart-elk" viewBox="0 0 10 10" refX="-1" refY="5" markerUnits="userSpaceOnUse" markerWidth="11" markerHeight="11" orient="auto"><circle cx="5" cy="5" r="5" class="arrowMarkerPath" style="stroke-width: 1; stroke-dasharray: 1, 0;"/></marker><marker id="my-svg_flowchart-elk-circleEnd-margin" class="marker flowchart-elk" viewBox="0 0 10 10" refY="5" refX="12.25" markerUnits="userSpaceOnUse" markerWidth="14" markerHeight="14" orient="auto"><circle cx="5" cy="5" r="5" class="arrowMarkerPath" style="stroke-width: 0; stroke-dasharray: 1, 0;"/></marker><marker id="my-svg_flowchart-elk-circleStart-margin" class="marker flowchart-elk" viewBox="0 0 10 10" refX="-2" refY="5" markerUnits="userSpaceOnUse" markerWidth="14" markerHeight="14" orient="auto"><circle cx="5" cy="5" r="5" class="arrowMarkerPath" style="stroke-width: 0; stroke-dasharray: 1, 0;"/></marker><marker id="my-svg_flowchart-elk-crossEnd" class="marker cross flowchart-elk" viewBox="0 0 11 11" refX="12" refY="5.2" markerUnits="userSpaceOnUse" markerWidth="11" markerHeight="11" orient="auto"><path d="M 1,1 l 9,9 M 10,1 l -9,9" class="arrowMarkerPath" style="stroke-width: 2; stroke-dasharray: 1, 0;"/></marker><marker id="my-svg_flowchart-elk-crossStart" class="marker cross flowchart-elk" viewBox="0 0 11 11" refX="-1" refY="5.2" markerUnits="userSpaceOnUse" markerWidth="11" markerHeight="11" orient="auto"><path d="M 1,1 l 9,9 M 10,1 l -9,9" class="arrowMarkerPath" style="stroke-width: 2; stroke-dasharray: 1, 0;"/></marker><marker id="my-svg_flowchart-elk-crossEnd-margin" class="marker cross flowchart-elk" viewBox="0 0 15 15" refX="17.7" refY="7.5" markerUnits="userSpaceOnUse" markerWidth="12" markerHeight="12" orient="auto"><path d="M 1,1 L 14,14 M 1,14 L 14,1" class="arrowMarkerPath" style="stroke-width: 2.5;"/></marker><marker id="my-svg_flowchart-elk-crossStart-margin" class="marker cross flowchart-elk" viewBox="0 0 15 15" refX="-3.5" refY="7.5" markerUnits="userSpaceOnUse" markerWidth="12" markerHeight="12" orient="auto"><path d="M 1,1 L 14,14 M 1,14 L 14,1" class="arrowMarkerPath" style="stroke-width: 2.5; stroke-dasharray: 1, 0;"/></marker></g><defs><filter id="my-svg-drop-shadow" height="130%" width="130%"><feDropShadow dx="4" dy="4" stdDeviation="0" flood-opacity="0.06" flood-color="#000000"/></filter></defs><defs><filter id="my-svg-drop-shadow-small" height="150%" width="150%"><feDropShadow dx="2" dy="2" stdDeviation="0" flood-opacity="0.06" flood-color="#000000"/></filter></defs><g class="subgraphs"/><g class="nodes"><g class="node default" id="my-svg-flowchart-Benutzer-0" data-look="classic" transform="translate(146.109375, 288)"><rect class="basic label-container" style="" x="-62.078125" y="-27" width="124.15625" height="54"/><g class="label" style="" transform="translate(-32.078125, -12)"><rect/><foreignObject width="64.15625" height="24"><div xmlns="http://www.w3.org/1999/xhtml" style="display: table-cell; white-space: nowrap; line-height: 1.5; max-width: 200px; text-align: center;"><span class="nodeLabel"><p>Benutzer</p></span></div></foreignObject></g></g><g class="node default" id="my-svg-flowchart-UI-1" data-look="classic" transform="translate(357.296875, 297)"><rect class="basic label-container" style="" x="-96.609375" y="-27" width="193.21875" height="54"/><g class="label" style="" transform="translate(-66.609375, -12)"><rect/><foreignObject width="133.21875" height="24"><div xmlns="http://www.w3.org/1999/xhtml" style="display: table-cell; white-space: nowrap; line-height: 1.5; max-width: 200px; text-align: center;"><span class="nodeLabel"><p>JavaFX Workbench</p></span></div></foreignObject></g></g><g class="node default" id="my-svg-flowchart-Zeichensteuerung-3" data-look="classic" transform="translate(568.859375, 297)"><rect class="basic label-container" style="" x="-79.953125" y="-27" width="159.90625" height="54"/><g class="label" style="" transform="translate(-49.953125, -12)"><rect/><foreignObject width="99.90625" height="24"><div xmlns="http://www.w3.org/1999/xhtml" style="display: table-cell; white-space: nowrap; line-height: 1.5; max-width: 200px; text-align: center;"><span class="nodeLabel"><p>UI-Interaktion</p></span></div></foreignObject></g></g><g class="node default" id="my-svg-flowchart-Drafting-5" data-look="classic" transform="translate(829.09375, 39)"><rect class="basic label-container" style="" x="-84.859375" y="-27" width="169.71875" height="54"/><g class="label" style="" transform="translate(-54.859375, -12)"><rect/><foreignObject width="109.71875" height="24"><div xmlns="http://www.w3.org/1999/xhtml" style="display: table-cell; white-space: nowrap; line-height: 1.5; max-width: 200px; text-align: center;"><span class="nodeLabel"><p>DraftingService</p></span></div></foreignObject></g></g><g class="node default" id="my-svg-flowchart-Snap-7" data-look="classic" transform="translate(841.8046875, 128)"><rect class="basic label-container" style="" x="-72.7265625" y="-27" width="145.453125" height="54"/><g class="label" style="" transform="translate(-42.7265625, -12)"><rect/><foreignObject width="85.453125" height="24"><div xmlns="http://www.w3.org/1999/xhtml" style="display: table-cell; white-space: nowrap; line-height: 1.5; max-width: 200px; text-align: center;"><span class="nodeLabel"><p>SnapService</p></span></div></foreignObject></g></g><g class="node default" id="my-svg-flowchart-Editing-9" data-look="classic" transform="translate(841.8046875, 217)"><rect class="basic label-container" style="" x="-96" y="-27" width="192" height="54"/><g class="label" style="" transform="translate(-66, -12)"><rect/><foreignObject width="132" height="24"><div xmlns="http://www.w3.org/1999/xhtml" style="display: table-cell; white-space: nowrap; line-height: 1.5; max-width: 200px; text-align: center;"><span class="nodeLabel"><p>WallEditingService</p></span></div></foreignObject></g></g><g class="node default" id="my-svg-flowchart-Openings-11" data-look="classic" transform="translate(841.8046875, 306)"><rect class="basic label-container" style="" x="-122.9921875" y="-27" width="245.984375" height="54"/><g class="label" style="" transform="translate(-92.9921875, -12)"><rect/><foreignObject width="185.984375" height="24"><div xmlns="http://www.w3.org/1999/xhtml" style="display: table-cell; white-space: nowrap; line-height: 1.5; max-width: 200px; text-align: center;"><span class="nodeLabel"><p>OpeningPlacementService</p></span></div></foreignObject></g></g><g class="node default" id="my-svg-flowchart-Modell-13" data-look="classic" transform="translate(826.4973958333334, 395)"><rect class="basic label-container" style="" x="-77.0703125" y="-27" width="154.140625" height="54"/><g class="label" style="" transform="translate(-47.0703125, -12)"><rect/><foreignObject width="94.140625" height="24"><div xmlns="http://www.w3.org/1999/xhtml" style="display: table-cell; white-space: nowrap; line-height: 1.5; max-width: 200px; text-align: center;"><span class="nodeLabel"><p>ProjectModel</p></span></div></foreignObject></g></g><g class="node default" id="my-svg-flowchart-Geometrie-15" data-look="classic" transform="translate(1101.171875, 211.6)"><rect class="basic label-container" style="" x="-83.875" y="-27" width="167.75" height="54"/><g class="label" style="" transform="translate(-53.875, -12)"><rect/><foreignObject width="107.75" height="24"><div xmlns="http://www.w3.org/1999/xhtml" style="display: table-cell; white-space: nowrap; line-height: 1.5; max-width: 200px; text-align: center;"><span class="nodeLabel"><p>Geometriekern</p></span></div></foreignObject></g></g><g class="node default" id="my-svg-flowchart-Etage-23" data-look="classic" transform="translate(1122.0640625, 395)"><rect class="basic label-container" style="" x="-49.0546875" y="-27" width="98.109375" height="54"/><g class="label" style="" transform="translate(-19.0546875, -12)"><rect/><foreignObject width="38.109375" height="24"><div xmlns="http://www.w3.org/1999/xhtml" style="display: table-cell; white-space: nowrap; line-height: 1.5; max-width: 200px; text-align: center;"><span class="nodeLabel"><p>Level</p></span></div></foreignObject></g></g><g class="node default" id="my-svg-flowchart-Wand-25" data-look="classic" transform="translate(1300.34375, 144.2)"><rect class="basic label-container" style="" x="-45.296875" y="-27" width="90.59375" height="54"/><g class="label" style="" transform="translate(-15.296875, -12)"><rect/><foreignObject width="30.59375" height="24"><div xmlns="http://www.w3.org/1999/xhtml" style="display: table-cell; white-space: nowrap; line-height: 1.5; max-width: 200px; text-align: center;"><span class="nodeLabel"><p>Wall</p></span></div></foreignObject></g></g><g class="node default" id="my-svg-flowchart-Raum-27" data-look="classic" transform="translate(1304.609375, 233.2)"><rect class="basic label-container" style="" x="-49.5625" y="-27" width="99.125" height="54"/><g class="label" style="" transform="translate(-19.5625, -12)"><rect/><foreignObject width="39.125" height="24"><div xmlns="http://www.w3.org/1999/xhtml" style="display: table-cell; white-space: nowrap; line-height: 1.5; max-width: 200px; text-align: center;"><span class="nodeLabel"><p>Room</p></span></div></foreignObject></g></g><g class="node default" id="my-svg-flowchart-Tuer-29" data-look="classic" transform="translate(1301.6484375, 322.2)"><rect class="basic label-container" style="" x="-46.6015625" y="-27" width="93.203125" height="54"/><g class="label" style="" transform="translate(-16.6015625, -12)"><rect/><foreignObject width="33.203125" height="24"><div xmlns="http://www.w3.org/1999/xhtml" style="display: table-cell; white-space: nowrap; line-height: 1.5; max-width: 200px; text-align: center;"><span class="nodeLabel"><p>Door</p></span></div></foreignObject></g></g><g class="node default" id="my-svg-flowchart-Fenster-31" data-look="classic" transform="translate(1342.6640625, 411.2)"><rect class="basic label-container" style="" x="-87.6171875" y="-27" width="175.234375" height="54"/><g class="label" style="" transform="translate(-57.6171875, -12)"><rect/><foreignObject width="115.234375" height="24"><div xmlns="http://www.w3.org/1999/xhtml" style="display: table-cell; white-space: nowrap; line-height: 1.5; max-width: 200px; text-align: center;"><span class="nodeLabel"><p>WindowElement</p></span></div></foreignObject></g></g><g class="node default" id="my-svg-flowchart-Build-32" data-look="classic" transform="translate(110.09375, 390.5)"><rect class="basic label-container" style="" x="-98.09375" y="-27" width="196.1875" height="54"/><g class="label" style="" transform="translate(-68.09375, -12)"><rect/><foreignObject width="136.1875" height="24"><div xmlns="http://www.w3.org/1999/xhtml" style="display: table-cell; white-space: nowrap; line-height: 1.5; max-width: 200px; text-align: center;"><span class="nodeLabel"><p>Gradle und JaCoCo</p></span></div></foreignObject></g></g></g><g class="edges edgePaths"><path d="M208.188,288L256.688,288" id="my-svg-L_Benutzer_UI_0_0" class="edge-thickness-normal edge-pattern-solid edge-thickness-normal edge-pattern-solid flowchart-link" style=";" data-edge="true" data-et="edge" data-id="L_Benutzer_UI_0_0" data-points="W3sieCI6MjA4LjE4NzUsInkiOjI4OH0seyJ4IjoyNjAuNjg3NSwieSI6Mjg4fV0=" data-look="classic" marker-end="url(#my-svg_flowchart-elk-pointEnd)"/><path d="M453.906,297L484.906,297" id="my-svg-L_UI_Zeichensteuerung_0_0" class="edge-thickness-normal edge-pattern-solid edge-thickness-normal edge-pattern-solid flowchart-link" style=";" data-edge="true" data-et="edge" data-id="L_UI_Zeichensteuerung_0_0" data-points="W3sieCI6NDUzLjkwNjI1LCJ5IjoyOTd9LHsieCI6NDg4LjkwNjI1LCJ5IjoyOTd9XQ==" data-look="classic" marker-end="url(#my-svg_flowchart-elk-pointEnd)"/><path d="M648.813,279L650.896,279C652.979,279,657.146,279,659.701,278.638C662.255,278.276,663.198,277.552,664.031,276.719C664.865,275.886,665.589,274.943,665.951,237.638C666.313,200.333,666.313,126.667,666.674,89.362C667.036,52.057,667.76,51.114,668.594,50.281C669.427,49.448,670.37,48.724,682.328,48.362C694.286,48,717.26,48,728.747,48L740.234,48" id="my-svg-L_Zeichensteuerung_Drafting_0_0" class="edge-thickness-normal edge-pattern-solid edge-thickness-normal edge-pattern-solid flowchart-link" style=";" data-edge="true" data-et="edge" data-id="L_Zeichensteuerung_Drafting_0_0" data-points="W3sieCI6NjQ4LjgxMjUsInkiOjI3OX0seyJ4Ijo2NjYuMzEyNSwieSI6Mjc5fSx7IngiOjY2Ni4zMTI1LCJ5Ijo0OH0seyJ4Ijo3NDQuMjM0Mzc1LCJ5Ijo0OH1d" data-look="classic" marker-end="url(#my-svg_flowchart-elk-pointEnd)"/><path d="M648.813,288L653.813,288C658.813,288,668.813,288,674.284,287.638C679.755,287.276,680.698,286.552,681.531,285.719C682.365,284.886,683.089,283.943,683.451,258.471C683.813,233,683.813,183,684.174,157.529C684.536,132.057,685.26,131.114,686.094,130.281C686.927,129.448,687.87,128.724,701.052,128.362C714.234,128,739.656,128,752.367,128L765.078,128" id="my-svg-L_Zeichensteuerung_Snap_0_0" class="edge-thickness-normal edge-pattern-solid edge-thickness-normal edge-pattern-solid flowchart-link" style=";" data-edge="true" data-et="edge" data-id="L_Zeichensteuerung_Snap_0_0" data-points="W3sieCI6NjQ4LjgxMjUsInkiOjI4OH0seyJ4Ijo2ODMuODEyNSwieSI6Mjg4fSx7IngiOjY4My44MTI1LCJ5IjoxMjh9LHsieCI6NzY5LjA3ODEyNSwieSI6MTI4fV0=" data-look="classic" marker-end="url(#my-svg_flowchart-elk-pointEnd)"/><path d="M648.813,297L656.729,297C664.646,297,680.479,297,688.867,296.638C697.255,296.276,698.198,295.552,699.031,294.719C699.865,293.886,700.589,292.943,700.951,280.805C701.313,268.667,701.313,245.333,701.674,233.195C702.036,221.057,702.76,220.114,703.594,219.281C704.427,218.448,705.37,217.724,711.756,217.362C718.143,217,729.974,217,735.889,217L741.805,217" id="my-svg-L_Zeichensteuerung_Editing_0_0" class="edge-thickness-normal edge-pattern-solid edge-thickness-normal edge-pattern-solid flowchart-link" style=";" data-edge="true" data-et="edge" data-id="L_Zeichensteuerung_Editing_0_0" data-points="W3sieCI6NjQ4LjgxMjUsInkiOjI5N30seyJ4Ijo3MDEuMzEyNSwieSI6Mjk3fSx7IngiOjcwMS4zMTI1LCJ5IjoyMTd9LHsieCI6NzQ1LjgwNDY4NzUsInkiOjIxN31d" data-look="classic" marker-end="url(#my-svg_flowchart-elk-pointEnd)"/><path d="M648.813,306L714.813,306" id="my-svg-L_Zeichensteuerung_Openings_0_0" class="edge-thickness-normal edge-pattern-solid edge-thickness-normal edge-pattern-solid flowchart-link" style=";" data-edge="true" data-et="edge" data-id="L_Zeichensteuerung_Openings_0_0" data-points="W3sieCI6NjQ4LjgxMjUsInkiOjMwNn0seyJ4Ijo3MTguODEyNSwieSI6MzA2fV0=" data-look="classic" marker-end="url(#my-svg_flowchart-elk-pointEnd)"/><path d="M648.813,315L650.896,315C652.979,315,657.146,315,659.701,315.362C662.255,315.724,663.198,316.448,664.031,317.281C664.865,318.114,665.589,319.057,665.951,329.695C666.313,340.333,666.313,360.667,666.674,371.305C667.036,381.943,667.76,382.886,668.594,383.719C669.427,384.552,670.37,385.276,683.194,385.638C696.017,386,720.722,386,733.075,386L745.427,386" id="my-svg-L_Zeichensteuerung_Modell_0_0" class="edge-thickness-normal edge-pattern-solid edge-thickness-normal edge-pattern-solid flowchart-link" style=";" data-edge="true" data-et="edge" data-id="L_Zeichensteuerung_Modell_0_0" data-points="W3sieCI6NjQ4LjgxMjUsInkiOjMxNX0seyJ4Ijo2NjYuMzEyNSwieSI6MzE1fSx7IngiOjY2Ni4zMTI1LCJ5IjozODZ9LHsieCI6NzQ5LjQyNzA4MzMzMzMzMzQsInkiOjM4Nn1d" data-look="classic" marker-end="url(#my-svg_flowchart-elk-pointEnd)"/><path d="M913.953,39L927.427,39C940.901,39,967.849,39,981.794,39.362C995.74,39.724,996.682,40.448,997.516,41.281C998.349,42.114,999.073,43.057,999.435,67.929C999.797,92.8,999.797,141.6,1000.159,166.471C1000.521,191.343,1001.245,192.286,1002.078,193.119C1002.911,193.952,1003.854,194.676,1005.742,195.038C1007.63,195.4,1010.464,195.4,1011.88,195.4L1013.297,195.4" id="my-svg-L_Drafting_Geometrie_0_0" class="edge-thickness-normal edge-pattern-solid edge-thickness-normal edge-pattern-solid flowchart-link" style=";" data-edge="true" data-et="edge" data-id="L_Drafting_Geometrie_0_0" data-points="W3sieCI6OTEzLjk1MzEyNSwieSI6Mzl9LHsieCI6OTk5Ljc5Njg3NSwieSI6Mzl9LHsieCI6OTk5Ljc5Njg3NSwieSI6MTk1LjR9LHsieCI6MTAxNy4yOTY4NzUsInkiOjE5NS40fV0=" data-look="classic" marker-end="url(#my-svg_flowchart-elk-pointEnd)"/><path d="M914.531,128L924.992,128C935.453,128,956.375,128,967.307,128.362C978.24,128.724,979.182,129.448,980.016,130.281C980.849,131.114,981.573,132.057,981.935,143.895C982.297,155.733,982.297,178.467,982.659,190.305C983.021,202.143,983.745,203.086,984.578,203.919C985.411,204.752,986.354,205.476,991.159,205.838C995.964,206.2,1004.63,206.2,1008.964,206.2L1013.297,206.2" id="my-svg-L_Snap_Geometrie_0_0" class="edge-thickness-normal edge-pattern-solid edge-thickness-normal edge-pattern-solid flowchart-link" style=";" data-edge="true" data-et="edge" data-id="L_Snap_Geometrie_0_0" data-points="W3sieCI6OTE0LjUzMTI1LCJ5IjoxMjh9LHsieCI6OTgyLjI5Njg3NSwieSI6MTI4fSx7IngiOjk4Mi4yOTY4NzUsInkiOjIwNi4yfSx7IngiOjEwMTcuMjk2ODc1LCJ5IjoyMDYuMn1d" data-look="classic" marker-end="url(#my-svg_flowchart-elk-pointEnd)"/><path d="M937.805,217L1013.297,217" id="my-svg-L_Editing_Geometrie_0_0" class="edge-thickness-normal edge-pattern-solid edge-thickness-normal edge-pattern-solid flowchart-link" style=";" data-edge="true" data-et="edge" data-id="L_Editing_Geometrie_0_0" data-points="W3sieCI6OTM3LjgwNDY4NzUsInkiOjIxN30seyJ4IjoxMDE3LjI5Njg3NSwieSI6MjE3fV0=" data-look="classic" marker-end="url(#my-svg_flowchart-elk-pointEnd)"/><path d="M964.797,306L966.88,306C968.964,306,973.13,306,975.685,305.638C978.24,305.276,979.182,304.552,980.016,303.719C980.849,302.886,981.573,301.943,981.935,290.105C982.297,278.267,982.297,255.533,982.659,243.695C983.021,231.857,983.745,230.914,984.578,230.081C985.411,229.248,986.354,228.524,991.159,228.162C995.964,227.8,1004.63,227.8,1008.964,227.8L1013.297,227.8" id="my-svg-L_Openings_Geometrie_0_0" class="edge-thickness-normal edge-pattern-solid edge-thickness-normal edge-pattern-solid flowchart-link" style=";" data-edge="true" data-et="edge" data-id="L_Openings_Geometrie_0_0" data-points="W3sieCI6OTY0Ljc5Njg3NSwieSI6MzA2fSx7IngiOjk4Mi4yOTY4NzUsInkiOjMwNn0seyJ4Ijo5ODIuMjk2ODc1LCJ5IjoyMjcuOH0seyJ4IjoxMDE3LjI5Njg3NSwieSI6MjI3Ljh9XQ==" data-look="classic" marker-end="url(#my-svg_flowchart-elk-pointEnd)"/><path d="M903.568,395L1069.009,395" id="my-svg-L_Modell_Etage_0_0" class="edge-thickness-normal edge-pattern-solid edge-thickness-normal edge-pattern-solid flowchart-link" style=";" data-edge="true" data-et="edge" data-id="L_Modell_Etage_0_0" data-points="W3sieCI6OTAzLjU2NzcwODMzMzMzMzQsInkiOjM5NX0seyJ4IjoxMDczLjAwOTM3NSwieSI6Mzk1fV0=" data-look="classic" marker-end="url(#my-svg_flowchart-elk-pointEnd)"/><path d="M1171.119,378.8L1175.523,378.8C1179.928,378.8,1188.738,378.8,1193.614,378.438C1198.49,378.076,1199.432,377.352,1200.266,376.519C1201.099,375.686,1201.823,374.743,1202.185,336.838C1202.547,298.933,1202.547,224.067,1202.909,186.162C1203.271,148.257,1203.995,147.314,1204.828,146.481C1205.661,145.648,1206.604,144.924,1214.325,144.562C1222.047,144.2,1236.547,144.2,1243.797,144.2L1251.047,144.2" id="my-svg-L_Etage_Wand_0_0" class="edge-thickness-normal edge-pattern-solid edge-thickness-normal edge-pattern-solid flowchart-link" style=";" data-edge="true" data-et="edge" data-id="L_Etage_Wand_0_0" data-points="W3sieCI6MTE3MS4xMTg3NSwieSI6Mzc4Ljh9LHsieCI6MTIwMi41NDY4NzUsInkiOjM3OC44fSx7IngiOjEyMDIuNTQ2ODc1LCJ5IjoxNDQuMn0seyJ4IjoxMjU1LjA0Njg3NSwieSI6MTQ0LjJ9XQ==" data-look="classic" marker-end="url(#my-svg_flowchart-elk-pointEnd)"/><path d="M1171.119,389.6L1178.44,389.6C1185.761,389.6,1200.404,389.6,1208.197,389.238C1215.99,388.876,1216.932,388.152,1217.766,387.319C1218.599,386.486,1219.323,385.543,1219.685,360.671C1220.047,335.8,1220.047,287,1220.409,262.129C1220.771,237.257,1221.495,236.314,1222.328,235.481C1223.161,234.648,1224.104,233.924,1228.909,233.562C1233.714,233.2,1242.38,233.2,1246.714,233.2L1251.047,233.2" id="my-svg-L_Etage_Raum_0_0" class="edge-thickness-normal edge-pattern-solid edge-thickness-normal edge-pattern-solid flowchart-link" style=";" data-edge="true" data-et="edge" data-id="L_Etage_Raum_0_0" data-points="W3sieCI6MTE3MS4xMTg3NSwieSI6Mzg5LjZ9LHsieCI6MTIyMC4wNDY4NzUsInkiOjM4OS42fSx7IngiOjEyMjAuMDQ2ODc1LCJ5IjoyMzMuMn0seyJ4IjoxMjU1LjA0Njg3NSwieSI6MjMzLjJ9XQ==" data-look="classic" marker-end="url(#my-svg_flowchart-elk-pointEnd)"/><path d="M1171.119,400.4L1181.357,400.4C1191.595,400.4,1212.071,400.4,1222.78,400.038C1233.49,399.676,1234.432,398.952,1235.266,398.119C1236.099,397.286,1236.823,396.343,1237.185,384.505C1237.547,372.667,1237.547,349.933,1237.909,338.095C1238.271,326.257,1238.995,325.314,1239.828,324.481C1240.661,323.648,1241.604,322.924,1243.492,322.562C1245.38,322.2,1248.214,322.2,1249.63,322.2L1251.047,322.2" id="my-svg-L_Etage_Tuer_0_0" class="edge-thickness-normal edge-pattern-solid edge-thickness-normal edge-pattern-solid flowchart-link" style=";" data-edge="true" data-et="edge" data-id="L_Etage_Tuer_0_0" data-points="W3sieCI6MTE3MS4xMTg3NSwieSI6NDAwLjR9LHsieCI6MTIzNy41NDY4NzUsInkiOjQwMC40fSx7IngiOjEyMzcuNTQ2ODc1LCJ5IjozMjIuMn0seyJ4IjoxMjU1LjA0Njg3NSwieSI6MzIyLjJ9XQ==" data-look="classic" marker-end="url(#my-svg_flowchart-elk-pointEnd)"/><path d="M1171.119,411.2L1251.047,411.2" id="my-svg-L_Etage_Fenster_0_0" class="edge-thickness-normal edge-pattern-solid edge-thickness-normal edge-pattern-solid flowchart-link" style=";" data-edge="true" data-et="edge" data-id="L_Etage_Fenster_0_0" data-points="W3sieCI6MTE3MS4xMTg3NSwieSI6NDExLjJ9LHsieCI6MTI1NS4wNDY4NzUsInkiOjQxMS4yfV0=" data-look="classic" marker-end="url(#my-svg_flowchart-elk-pointEnd)"/><path d="M208.188,390.5L213.188,390.5C218.188,390.5,228.188,390.5,233.659,390.138C239.13,389.776,240.073,389.052,240.906,388.219C241.74,387.386,242.464,386.443,242.826,373.555C243.188,360.667,243.188,335.833,243.549,322.945C243.911,310.057,244.635,309.114,245.469,308.281C246.302,307.448,247.245,306.724,249.133,306.362C251.021,306,253.854,306,255.271,306L256.688,306" id="my-svg-L_Build_UI_0_0" class="edge-thickness-normal edge-pattern-solid edge-thickness-normal edge-pattern-solid flowchart-link" style=";" data-edge="true" data-et="edge" data-id="L_Build_UI_0_0" data-points="W3sieCI6MjA4LjE4NzUsInkiOjM5MC41fSx7IngiOjI0My4xODc1LCJ5IjozOTAuNX0seyJ4IjoyNDMuMTg3NSwieSI6MzA2fSx7IngiOjI2MC42ODc1LCJ5IjozMDZ9XQ==" data-look="classic" marker-end="url(#my-svg_flowchart-elk-pointEnd)"/><path d="M208.188,377L210.271,377C212.354,377,216.521,377,219.076,376.638C221.63,376.276,222.573,375.552,223.406,374.719C224.24,373.886,224.964,372.943,225.326,316.305C225.688,259.667,225.688,147.333,226.049,90.695C226.411,34.057,227.135,33.114,227.969,32.281C228.802,31.448,229.745,30.724,251.318,30.362C272.891,30,315.094,30,371.456,30C427.818,30,498.339,30,562.161,30C625.984,30,683.109,30,711.672,30L740.234,30" id="my-svg-L_Build_Drafting_0_0" class="edge-thickness-normal edge-pattern-solid edge-thickness-normal edge-pattern-solid flowchart-link" style=";" data-edge="true" data-et="edge" data-id="L_Build_Drafting_0_0" data-points="W3sieCI6MjA4LjE4NzUsInkiOjM3N30seyJ4IjoyMjUuNjg3NSwieSI6Mzc3fSx7IngiOjIyNS42ODc1LCJ5IjozMH0seyJ4IjozNTcuMjk2ODc1LCJ5IjozMH0seyJ4Ijo1NjguODU5Mzc1LCJ5IjozMH0seyJ4Ijo3NDQuMjM0Mzc1LCJ5IjozMH1d" data-look="classic" marker-end="url(#my-svg_flowchart-elk-pointEnd)"/><path d="M208.188,404L233.039,404C257.891,404,307.594,404,367.706,404C427.818,404,498.339,404,563.027,404C627.715,404,686.571,404,715.999,404L745.427,404" id="my-svg-L_Build_Modell_0_0" class="edge-thickness-normal edge-pattern-solid edge-thickness-normal edge-pattern-solid flowchart-link" style=";" data-edge="true" data-et="edge" data-id="L_Build_Modell_0_0" data-points="W3sieCI6MjA4LjE4NzUsInkiOjQwNH0seyJ4IjozNTcuMjk2ODc1LCJ5Ijo0MDR9LHsieCI6NTY4Ljg1OTM3NSwieSI6NDA0fSx7IngiOjc0OS40MjcwODMzMzMzMzM0LCJ5Ijo0MDR9XQ==" data-look="classic" marker-end="url(#my-svg_flowchart-elk-pointEnd)"/></g><g class="edgeLabels"><g class="edgeLabel"><g class="label" data-id="L_Benutzer_UI_0_0" transform="translate(0, 0)"><foreignObject width="0" height="0"><div xmlns="http://www.w3.org/1999/xhtml" class="labelBkg" style="display: table-cell; white-space: nowrap; line-height: 1.5; max-width: 200px; text-align: center;"><span class="edgeLabel"></span></div></foreignObject></g></g><g class="edgeLabel"><g class="label" data-id="L_UI_Zeichensteuerung_0_0" transform="translate(0, 0)"><foreignObject width="0" height="0"><div xmlns="http://www.w3.org/1999/xhtml" class="labelBkg" style="display: table-cell; white-space: nowrap; line-height: 1.5; max-width: 200px; text-align: center;"><span class="edgeLabel"></span></div></foreignObject></g></g><g class="edgeLabel"><g class="label" data-id="L_Zeichensteuerung_Drafting_0_0" transform="translate(0, 0)"><foreignObject width="0" height="0"><div xmlns="http://www.w3.org/1999/xhtml" class="labelBkg" style="display: table-cell; white-space: nowrap; line-height: 1.5; max-width: 200px; text-align: center;"><span class="edgeLabel"></span></div></foreignObject></g></g><g class="edgeLabel"><g class="label" data-id="L_Zeichensteuerung_Snap_0_0" transform="translate(0, 0)"><foreignObject width="0" height="0"><div xmlns="http://www.w3.org/1999/xhtml" class="labelBkg" style="display: table-cell; white-space: nowrap; line-height: 1.5; max-width: 200px; text-align: center;"><span class="edgeLabel"></span></div></foreignObject></g></g><g class="edgeLabel"><g class="label" data-id="L_Zeichensteuerung_Editing_0_0" transform="translate(0, 0)"><foreignObject width="0" height="0"><div xmlns="http://www.w3.org/1999/xhtml" class="labelBkg" style="display: table-cell; white-space: nowrap; line-height: 1.5; max-width: 200px; text-align: center;"><span class="edgeLabel"></span></div></foreignObject></g></g><g class="edgeLabel"><g class="label" data-id="L_Zeichensteuerung_Openings_0_0" transform="translate(0, 0)"><foreignObject width="0" height="0"><div xmlns="http://www.w3.org/1999/xhtml" class="labelBkg" style="display: table-cell; white-space: nowrap; line-height: 1.5; max-width: 200px; text-align: center;"><span class="edgeLabel"></span></div></foreignObject></g></g><g class="edgeLabel"><g class="label" data-id="L_Zeichensteuerung_Modell_0_0" transform="translate(0, 0)"><foreignObject width="0" height="0"><div xmlns="http://www.w3.org/1999/xhtml" class="labelBkg" style="display: table-cell; white-space: nowrap; line-height: 1.5; max-width: 200px; text-align: center;"><span class="edgeLabel"></span></div></foreignObject></g></g><g class="edgeLabel"><g class="label" data-id="L_Drafting_Geometrie_0_0" transform="translate(0, 0)"><foreignObject width="0" height="0"><div xmlns="http://www.w3.org/1999/xhtml" class="labelBkg" style="display: table-cell; white-space: nowrap; line-height: 1.5; max-width: 200px; text-align: center;"><span class="edgeLabel"></span></div></foreignObject></g></g><g class="edgeLabel"><g class="label" data-id="L_Snap_Geometrie_0_0" transform="translate(0, 0)"><foreignObject width="0" height="0"><div xmlns="http://www.w3.org/1999/xhtml" class="labelBkg" style="display: table-cell; white-space: nowrap; line-height: 1.5; max-width: 200px; text-align: center;"><span class="edgeLabel"></span></div></foreignObject></g></g><g class="edgeLabel"><g class="label" data-id="L_Editing_Geometrie_0_0" transform="translate(0, 0)"><foreignObject width="0" height="0"><div xmlns="http://www.w3.org/1999/xhtml" class="labelBkg" style="display: table-cell; white-space: nowrap; line-height: 1.5; max-width: 200px; text-align: center;"><span class="edgeLabel"></span></div></foreignObject></g></g><g class="edgeLabel"><g class="label" data-id="L_Openings_Geometrie_0_0" transform="translate(0, 0)"><foreignObject width="0" height="0"><div xmlns="http://www.w3.org/1999/xhtml" class="labelBkg" style="display: table-cell; white-space: nowrap; line-height: 1.5; max-width: 200px; text-align: center;"><span class="edgeLabel"></span></div></foreignObject></g></g><g class="edgeLabel"><g class="label" data-id="L_Modell_Etage_0_0" transform="translate(0, 0)"><foreignObject width="0" height="0"><div xmlns="http://www.w3.org/1999/xhtml" class="labelBkg" style="display: table-cell; white-space: nowrap; line-height: 1.5; max-width: 200px; text-align: center;"><span class="edgeLabel"></span></div></foreignObject></g></g><g class="edgeLabel"><g class="label" data-id="L_Etage_Wand_0_0" transform="translate(0, 0)"><foreignObject width="0" height="0"><div xmlns="http://www.w3.org/1999/xhtml" class="labelBkg" style="display: table-cell; white-space: nowrap; line-height: 1.5; max-width: 200px; text-align: center;"><span class="edgeLabel"></span></div></foreignObject></g></g><g class="edgeLabel"><g class="label" data-id="L_Etage_Raum_0_0" transform="translate(0, 0)"><foreignObject width="0" height="0"><div xmlns="http://www.w3.org/1999/xhtml" class="labelBkg" style="display: table-cell; white-space: nowrap; line-height: 1.5; max-width: 200px; text-align: center;"><span class="edgeLabel"></span></div></foreignObject></g></g><g class="edgeLabel"><g class="label" data-id="L_Etage_Tuer_0_0" transform="translate(0, 0)"><foreignObject width="0" height="0"><div xmlns="http://www.w3.org/1999/xhtml" class="labelBkg" style="display: table-cell; white-space: nowrap; line-height: 1.5; max-width: 200px; text-align: center;"><span class="edgeLabel"></span></div></foreignObject></g></g><g class="edgeLabel"><g class="label" data-id="L_Etage_Fenster_0_0" transform="translate(0, 0)"><foreignObject width="0" height="0"><div xmlns="http://www.w3.org/1999/xhtml" class="labelBkg" style="display: table-cell; white-space: nowrap; line-height: 1.5; max-width: 200px; text-align: center;"><span class="edgeLabel"></span></div></foreignObject></g></g><g class="edgeLabel"><g class="label" data-id="L_Build_UI_0_0" transform="translate(0, 0)"><foreignObject width="0" height="0"><div xmlns="http://www.w3.org/1999/xhtml" class="labelBkg" style="display: table-cell; white-space: nowrap; line-height: 1.5; max-width: 200px; text-align: center;"><span class="edgeLabel"></span></div></foreignObject></g></g><g class="edgeLabel"><g class="label" data-id="L_Build_Drafting_0_0" transform="translate(0, 0)"><foreignObject width="0" height="0"><div xmlns="http://www.w3.org/1999/xhtml" class="labelBkg" style="display: table-cell; white-space: nowrap; line-height: 1.5; max-width: 200px; text-align: center;"><span class="edgeLabel"></span></div></foreignObject></g></g><g class="edgeLabel"><g class="label" data-id="L_Build_Modell_0_0" transform="translate(0, 0)"><foreignObject width="0" height="0"><div xmlns="http://www.w3.org/1999/xhtml" class="labelBkg" style="display: table-cell; white-space: nowrap; line-height: 1.5; max-width: 200px; text-align: center;"><span class="edgeLabel"></span></div></foreignObject></g></g></g></svg>