<svg height="702" id="my-svg" width="1611" xmlns="http://www.w3.org/2000/svg" xmlns:xlink="http://www.w3.org/1999/xlink" class="flowchart" style="background-color: white;" viewBox="4 4 1610.90625 702" role="graphics-document document" aria-roledescription="flowchart-elk"><style>#my-svg{font-family:"trebuchet ms",verdana,arial,sans-serif;font-size:16px;fill:#333;}@keyframes edge-animation-frame{from{stroke-dashoffset:0;}}@keyframes dash{to{stroke-dashoffset:0;}}#my-svg .edge-animation-slow{stroke-dasharray:9,5!important;stroke-dashoffset:900;animation:dash 50s linear infinite;stroke-linecap:round;}#my-svg .edge-animation-fast{stroke-dasharray:9,5!important;stroke-dashoffset:900;animation:dash 20s linear infinite;stroke-linecap:round;}#my-svg .error-icon{fill:#552222;}#my-svg .error-text{fill:#552222;stroke:#552222;}#my-svg .edge-thickness-normal{stroke-width:1px;}#my-svg .edge-thickness-thick{stroke-width:3.5px;}#my-svg .edge-pattern-solid{stroke-dasharray:0;}#my-svg .edge-thickness-invisible{stroke-width:0;fill:none;}#my-svg .edge-pattern-dashed{stroke-dasharray:3;}#my-svg .edge-pattern-dotted{stroke-dasharray:2;}#my-svg .marker{fill:#333333;stroke:#333333;}#my-svg .marker.cross{stroke:#333333;}#my-svg svg{font-family:"trebuchet ms",verdana,arial,sans-serif;font-size:16px;}#my-svg p{margin:0;}#my-svg .label{font-family:"trebuchet ms",verdana,arial,sans-serif;color:#333;}#my-svg .cluster-label text{fill:#333;}#my-svg .cluster-label span{color:#333;}#my-svg .cluster-label span p{background-color:transparent;}#my-svg .label text,#my-svg span{fill:#333;color:#333;}#my-svg .node rect,#my-svg .node circle,#my-svg .node ellipse,#my-svg .node polygon,#my-svg .node path{fill:#ECECFF;stroke:#9370DB;stroke-width:1px;}#my-svg .rough-node .label text,#my-svg .node .label text,#my-svg .image-shape .label,#my-svg .icon-shape .label{text-anchor:middle;}#my-svg .node .katex path{fill:#000;stroke:#000;stroke-width:1px;}#my-svg .rough-node .label,#my-svg .node .label,#my-svg .image-shape .label,#my-svg .icon-shape .label{text-align:center;}#my-svg .node.clickable{cursor:pointer;}#my-svg .root .anchor path{fill:#333333!important;stroke-width:0;stroke:#333333;}#my-svg .arrowheadPath{fill:#333333;}#my-svg .edgePath .path{stroke:#333333;stroke-width:1px;}#my-svg .flowchart-link{stroke:#333333;fill:none;}#my-svg .edgeLabel{background-color:rgba(232,232,232, 0.8);text-align:center;}#my-svg .edgeLabel p{background-color:rgba(232,232,232, 0.8);}#my-svg .edgeLabel rect{opacity:0.5;background-color:rgba(232,232,232, 0.8);fill:rgba(232,232,232, 0.8);}#my-svg .labelBkg{background-color:rgba(232, 232, 232, 0.5);}#my-svg .cluster rect{fill:#ffffde;stroke:#aaaa33;stroke-width:1px;}#my-svg .cluster text{fill:#333;}#my-svg .cluster span{color:#333;}#my-svg div.mermaidTooltip{position:absolute;text-align:center;max-width:200px;padding:2px;font-family:"trebuchet ms",verdana,arial,sans-serif;font-size:12px;background:hsl(80, 100%, 96.2745098039%);border:1px solid #aaaa33;border-radius:2px;pointer-events:none;z-index:100;}#my-svg .flowchartTitleText{text-anchor:middle;font-size:18px;fill:#333;}#my-svg rect.text{fill:none;stroke-width:0;}#my-svg .icon-shape,#my-svg .image-shape{background-color:rgba(232,232,232, 0.8);text-align:center;}#my-svg .icon-shape p,#my-svg .image-shape p{background-color:rgba(232,232,232, 0.8);padding:2px;}#my-svg .icon-shape .label rect,#my-svg .image-shape .label rect{opacity:0.5;background-color:rgba(232,232,232, 0.8);fill:rgba(232,232,232, 0.8);}#my-svg .label-icon{display:inline-block;height:1em;overflow:visible;vertical-align:-0.125em;}#my-svg .node .label-icon path{fill:currentColor;stroke:revert;stroke-width:revert;}#my-svg .node .neo-node{stroke:#9370DB;}#my-svg [data-look="neo"].node rect,#my-svg [data-look="neo"].cluster rect,#my-svg [data-look="neo"].node polygon{stroke:#9370DB;filter:drop-shadow(1px 2px 2px rgba(185, 185, 185, 1));}#my-svg [data-look="neo"].node path{stroke:#9370DB;stroke-width:1px;}#my-svg [data-look="neo"].node .outer-path{filter:drop-shadow(1px 2px 2px rgba(185, 185, 185, 1));}#my-svg [data-look="neo"].node .neo-line path{stroke:#9370DB;filter:none;}#my-svg [data-look="neo"].node circle{stroke:#9370DB;filter:drop-shadow(1px 2px 2px rgba(185, 185, 185, 1));}#my-svg [data-look="neo"].node circle .state-start{fill:#000000;}#my-svg [data-look="neo"].icon-shape .icon{fill:#9370DB;filter:drop-shadow(1px 2px 2px rgba(185, 185, 185, 1));}#my-svg [data-look="neo"].icon-shape .icon-neo path{stroke:#9370DB;filter:drop-shadow(1px 2px 2px rgba(185, 185, 185, 1));}#my-svg :root{--mermaid-font-family:"trebuchet ms",verdana,arial,sans-serif;}</style><g><marker id="my-svg_flowchart-elk-pointEnd" class="marker flowchart-elk" viewBox="0 0 10 10" refX="5" refY="5" markerUnits="userSpaceOnUse" markerWidth="8" markerHeight="8" orient="auto"><path d="M 0 0 L 10 5 L 0 10 z" class="arrowMarkerPath" style="stroke-width: 1; stroke-dasharray: 1, 0;"/></marker><marker id="my-svg_flowchart-elk-pointStart" class="marker flowchart-elk" viewBox="0 0 10 10" refX="4.5" refY="5" markerUnits="userSpaceOnUse" markerWidth="8" markerHeight="8" orient="auto"><path d="M 0 5 L 10 10 L 10 0 z" class="arrowMarkerPath" style="stroke-width: 1; stroke-dasharray: 1, 0;"/></marker><marker id="my-svg_flowchart-elk-pointEnd-margin" class="marker flowchart-elk" viewBox="0 0 11.5 14" refX="11.5" refY="7" markerUnits="userSpaceOnUse" markerWidth="10.5" markerHeight="14" orient="auto"><path d="M 0 0 L 11.5 7 L 0 14 z" class="arrowMarkerPath" style="stroke-width: 0; stroke-dasharray: 1, 0;"/></marker><marker id="my-svg_flowchart-elk-pointStart-margin" class="marker flowchart-elk" viewBox="0 0 11.5 14" refX="1" refY="7" markerUnits="userSpaceOnUse" markerWidth="11.5" markerHeight="14" orient="auto"><polygon points="0,7 11.5,14 11.5,0" class="arrowMarkerPath" style="stroke-width: 0; stroke-dasharray: 1, 0;"/></marker><marker id="my-svg_flowchart-elk-circleEnd" class="marker flowchart-elk" viewBox="0 0 10 10" refX="11" refY="5" markerUnits="userSpaceOnUse" markerWidth="11" markerHeight="11" orient="auto"><circle cx="5" cy="5" r="5" class="arrowMarkerPath" style="stroke-width: 1; stroke-dasharray: 1, 0;"/></marker><marker id="my-svg_flowchart-elk-circleStart" class="marker flowchart-elk" viewBox="0 0 10 10" refX="-1" refY="5" markerUnits="userSpaceOnUse" markerWidth="11" markerHeight="11" orient="auto"><circle cx="5" cy="5" r="5" class="arrowMarkerPath" style="stroke-width: 1; stroke-dasharray: 1, 0;"/></marker><marker id="my-svg_flowchart-elk-circleEnd-margin" class="marker flowchart-elk" viewBox="0 0 10 10" refY="5" refX="12.25" markerUnits="userSpaceOnUse" markerWidth="14" markerHeight="14" orient="auto"><circle cx="5" cy="5" r="5" class="arrowMarkerPath" style="stroke-width: 0; stroke-dasharray: 1, 0;"/></marker><marker id="my-svg_flowchart-elk-circleStart-margin" class="marker flowchart-elk" viewBox="0 0 10 10" refX="-2" refY="5" markerUnits="userSpaceOnUse" markerWidth="14" markerHeight="14" orient="auto"><circle cx="5" cy="5" r="5" class="arrowMarkerPath" style="stroke-width: 0; stroke-dasharray: 1, 0;"/></marker><marker id="my-svg_flowchart-elk-crossEnd" class="marker cross flowchart-elk" viewBox="0 0 11 11" refX="12" refY="5.2" markerUnits="userSpaceOnUse" markerWidth="11" markerHeight="11" orient="auto"><path d="M 1,1 l 9,9 M 10,1 l -9,9" class="arrowMarkerPath" style="stroke-width: 2; stroke-dasharray: 1, 0;"/></marker><marker id="my-svg_flowchart-elk-crossStart" class="marker cross flowchart-elk" viewBox="0 0 11 11" refX="-1" refY="5.2" markerUnits="userSpaceOnUse" markerWidth="11" markerHeight="11" orient="auto"><path d="M 1,1 l 9,9 M 10,1 l -9,9" class="arrowMarkerPath" style="stroke-width: 2; stroke-dasharray: 1, 0;"/></marker><marker id="my-svg_flowchart-elk-crossEnd-margin" class="marker cross flowchart-elk" viewBox="0 0 15 15" refX="17.7" refY="7.5" markerUnits="userSpaceOnUse" markerWidth="12" markerHeight="12" orient="auto"><path d="M 1,1 L 14,14 M 1,14 L 14,1" class="arrowMarkerPath" style="stroke-width: 2.5;"/></marker><marker id="my-svg_flowchart-elk-crossStart-margin" class="marker cross flowchart-elk" viewBox="0 0 15 15" refX="-3.5" refY="7.5" markerUnits="userSpaceOnUse" markerWidth="12" markerHeight="12" orient="auto"><path d="M 1,1 L 14,14 M 1,14 L 14,1" class="arrowMarkerPath" style="stroke-width: 2.5; stroke-dasharray: 1, 0;"/></marker></g><defs><filter id="my-svg-drop-shadow" height="130%" width="130%"><feDropShadow dx="4" dy="4" stdDeviation="0" flood-opacity="0.06" flood-color="#000000"/></filter></defs><defs><filter id="my-svg-drop-shadow-small" height="150%" width="150%"><feDropShadow dx="2" dy="2" stdDeviation="0" flood-opacity="0.06" flood-color="#000000"/></filter></defs><g class="subgraphs"/><g class="nodes"><g class="node default" id="my-svg-flowchart-Benutzer-0" data-look="classic" transform="translate(146.109375, 549)"><rect class="basic label-container" style="" x="-62.078125" y="-27" width="124.15625" height="54"/><g class="label" style="" transform="translate(-32.078125, -12)"><rect/><foreignObject width="64.15625" height="24"><div xmlns="http://www.w3.org/1999/xhtml" style="display: table-cell; white-space: nowrap; line-height: 1.5; max-width: 200px; text-align: center;"><span class="nodeLabel"><p>Benutzer</p></span></div></foreignObject></g></g><g class="node default" id="my-svg-flowchart-UI-1" data-look="classic" transform="translate(357.296875, 558)"><rect class="basic label-container" style="" x="-96.609375" y="-27" width="193.21875" height="54"/><g class="label" style="" transform="translate(-66.609375, -12)"><rect/><foreignObject width="133.21875" height="24"><div xmlns="http://www.w3.org/1999/xhtml" style="display: table-cell; white-space: nowrap; line-height: 1.5; max-width: 200px; text-align: center;"><span class="nodeLabel"><p>JavaFX Workbench</p></span></div></foreignObject></g></g><g class="node default" id="my-svg-flowchart-Zeichensteuerung-3" data-look="classic" transform="translate(568.859375, 558)"><rect class="basic label-container" style="" x="-79.953125" y="-27" width="159.90625" height="54"/><g class="label" style="" transform="translate(-49.953125, -12)"><rect/><foreignObject width="99.90625" height="24"><div xmlns="http://www.w3.org/1999/xhtml" style="display: table-cell; white-space: nowrap; line-height: 1.5; max-width: 200px; text-align: center;"><span class="nodeLabel"><p>UI-Interaktion</p></span></div></foreignObject></g></g><g class="node default" id="my-svg-flowchart-Drafting-5" data-look="classic" transform="translate(881.59375, 39)"><rect class="basic label-container" style="" x="-84.859375" y="-27" width="169.71875" height="54"/><g class="label" style="" transform="translate(-54.859375, -12)"><rect/><foreignObject width="109.71875" height="24"><div xmlns="http://www.w3.org/1999/xhtml" style="display: table-cell; white-space: nowrap; line-height: 1.5; max-width: 200px; text-align: center;"><span class="nodeLabel"><p>DraftingService</p></span></div></foreignObject></g></g><g class="node default" id="my-svg-flowchart-Snap-7" data-look="classic" transform="translate(894.3046875, 128)"><rect class="basic label-container" style="" x="-72.7265625" y="-27" width="145.453125" height="54"/><g class="label" style="" transform="translate(-42.7265625, -12)"><rect/><foreignObject width="85.453125" height="24"><div xmlns="http://www.w3.org/1999/xhtml" style="display: table-cell; white-space: nowrap; line-height: 1.5; max-width: 200px; text-align: center;"><span class="nodeLabel"><p>SnapService</p></span></div></foreignObject></g></g><g class="node default" id="my-svg-flowchart-Editing-9" data-look="classic" transform="translate(894.3046875, 217)"><rect class="basic label-container" style="" x="-96" y="-27" width="192" height="54"/><g class="label" style="" transform="translate(-66, -12)"><rect/><foreignObject width="132" height="24"><div xmlns="http://www.w3.org/1999/xhtml" style="display: table-cell; white-space: nowrap; line-height: 1.5; max-width: 200px; text-align: center;"><span class="nodeLabel"><p>WallEditingService</p></span></div></foreignObject></g></g><g class="node default" id="my-svg-flowchart-Openings-11" data-look="classic" transform="translate(894.3046875, 306)"><rect class="basic label-container" style="" x="-122.9921875" y="-27" width="245.984375" height="54"/><g class="label" style="" transform="translate(-92.9921875, -12)"><rect/><foreignObject width="185.984375" height="24"><div xmlns="http://www.w3.org/1999/xhtml" style="display: table-cell; white-space: nowrap; line-height: 1.5; max-width: 200px; text-align: center;"><span class="nodeLabel"><p>OpeningPlacementService</p></span></div></foreignObject></g></g><g class="node default" id="my-svg-flowchart-Parts-13" data-look="classic" transform="translate(872.859375, 395)"><rect class="basic label-container" style="" x="-101.546875" y="-27" width="203.09375" height="54"/><g class="label" style="" transform="translate(-71.546875, -12)"><rect/><foreignObject width="143.09375" height="24"><div xmlns="http://www.w3.org/1999/xhtml" style="display: table-cell; white-space: nowrap; line-height: 1.5; max-width: 200px; text-align: center;"><span class="nodeLabel"><p>StandardPartLibrary</p></span></div></foreignObject></g></g><g class="node default" id="my-svg-flowchart-Exchange-15" data-look="classic" transform="translate(894.3046875, 484)"><rect class="basic label-container" style="" x="-108.4765625" y="-27" width="216.953125" height="54"/><g class="label" style="" transform="translate(-78.4765625, -12)"><rect/><foreignObject width="156.953125" height="24"><div xmlns="http://www.w3.org/1999/xhtml" style="display: table-cell; white-space: nowrap; line-height: 1.5; max-width: 200px; text-align: center;"><span class="nodeLabel"><p>LevelExchangeService</p></span></div></foreignObject></g></g><g class="node default" id="my-svg-flowchart-Layers-17" data-look="classic" transform="translate(864.5078125, 573)"><rect class="basic label-container" style="" x="-93.1953125" y="-27" width="186.390625" height="54"/><g class="label" style="" transform="translate(-63.1953125, -12)"><rect/><foreignObject width="126.390625" height="24"><div xmlns="http://www.w3.org/1999/xhtml" style="display: table-cell; white-space: nowrap; line-height: 1.5; max-width: 200px; text-align: center;"><span class="nodeLabel"><p>TileLayoutService</p></span></div></foreignObject></g></g><g class="node default" id="my-svg-flowchart-Modell-19" data-look="classic" transform="translate(894.3046875, 662)"><rect class="basic label-container" style="" x="-77.0703125" y="-27" width="154.140625" height="54"/><g class="label" style="" transform="translate(-47.0703125, -12)"><rect/><foreignObject width="94.140625" height="24"><div xmlns="http://www.w3.org/1999/xhtml" style="display: table-cell; white-space: nowrap; line-height: 1.5; max-width: 200px; text-align: center;"><span class="nodeLabel"><p>ProjectModel</p></span></div></foreignObject></g></g><g class="node default" id="my-svg-flowchart-Geometrie-21" data-look="classic" transform="translate(1153.671875, 211.60000000000002)"><rect class="basic label-container" style="" x="-83.875" y="-27" width="167.75" height="54"/><g class="label" style="" transform="translate(-53.875, -12)"><rect/><foreignObject width="107.75" height="24"><div xmlns="http://www.w3.org/1999/xhtml" style="display: table-cell; white-space: nowrap; line-height: 1.5; max-width: 200px; text-align: center;"><span class="nodeLabel"><p>Geometriekern</p></span></div></foreignObject></g></g><g class="node default" id="my-svg-flowchart-Dxf-29" data-look="classic" transform="translate(1190.1484375, 484)"><rect class="basic label-container" style="" x="-120.3515625" y="-27" width="240.703125" height="54"/><g class="label" style="" transform="translate(-90.3515625, -12)"><rect/><foreignObject width="180.703125" height="24"><div xmlns="http://www.w3.org/1999/xhtml" style="display: table-cell; white-space: nowrap; line-height: 1.5; max-width: 200px; text-align: center;"><span class="nodeLabel"><p>DxfLevelExchangeService</p></span></div></foreignObject></g></g><g class="node default" id="my-svg-flowchart-Etage-31" data-look="classic" transform="translate(1241.0747767857142, 582)"><rect class="basic label-container" style="" x="-49.0546875" y="-27" width="98.109375" height="54"/><g class="label" style="" transform="translate(-19.0546875, -12)"><rect/><foreignObject width="38.109375" height="24"><div xmlns="http://www.w3.org/1999/xhtml" style="display: table-cell; white-space: nowrap; line-height: 1.5; max-width: 200px; text-align: center;"><span class="nodeLabel"><p>Level</p></span></div></foreignObject></g></g><g class="node default" id="my-svg-flowchart-Wand-33" data-look="classic" transform="translate(1460.796875, 156.28571428571428)"><rect class="basic label-container" style="" x="-45.296875" y="-27" width="90.59375" height="54"/><g class="label" style="" transform="translate(-15.296875, -12)"><rect/><foreignObject width="30.59375" height="24"><div xmlns="http://www.w3.org/1999/xhtml" style="display: table-cell; white-space: nowrap; line-height: 1.5; max-width: 200px; text-align: center;"><span class="nodeLabel"><p>Wall</p></span></div></foreignObject></g></g><g class="node default" id="my-svg-flowchart-Raum-35" data-look="classic" transform="translate(1465.0625, 245.28571428571428)"><rect class="basic label-container" style="" x="-49.5625" y="-27" width="99.125" height="54"/><g class="label" style="" transform="translate(-19.5625, -12)"><rect/><foreignObject width="39.125" height="24"><div xmlns="http://www.w3.org/1999/xhtml" style="display: table-cell; white-space: nowrap; line-height: 1.5; max-width: 200px; text-align: center;"><span class="nodeLabel"><p>Room</p></span></div></foreignObject></g></g><g class="node default" id="my-svg-flowchart-Tuer-37" data-look="classic" transform="translate(1462.1015625, 334.2857142857143)"><rect class="basic label-container" style="" x="-46.6015625" y="-27" width="93.203125" height="54"/><g class="label" style="" transform="translate(-16.6015625, -12)"><rect/><foreignObject width="33.203125" height="24"><div xmlns="http://www.w3.org/1999/xhtml" style="display: table-cell; white-space: nowrap; line-height: 1.5; max-width: 200px; text-align: center;"><span class="nodeLabel"><p>Door</p></span></div></foreignObject></g></g><g class="node default" id="my-svg-flowchart-Fenster-39" data-look="classic" transform="translate(1503.1171875, 423.2857142857143)"><rect class="basic label-container" style="" x="-87.6171875" y="-27" width="175.234375" height="54"/><g class="label" style="" transform="translate(-57.6171875, -12)"><rect/><foreignObject width="115.234375" height="24"><div xmlns="http://www.w3.org/1999/xhtml" style="display: table-cell; white-space: nowrap; line-height: 1.5; max-width: 200px; text-align: center;"><span class="nodeLabel"><p>WindowElement</p></span></div></foreignObject></g></g><g class="node default" id="my-svg-flowchart-Treppe-41" data-look="classic" transform="translate(1477.8828125, 512.2857142857142)"><rect class="basic label-container" style="" x="-62.3828125" y="-27" width="124.765625" height="54"/><g class="label" style="" transform="translate(-32.3828125, -12)"><rect/><foreignObject width="64.765625" height="24"><div xmlns="http://www.w3.org/1999/xhtml" style="display: table-cell; white-space: nowrap; line-height: 1.5; max-width: 200px; text-align: center;"><span class="nodeLabel"><p>Staircase</p></span></div></foreignObject></g></g><g class="node default" id="my-svg-flowchart-Ebenen-43" data-look="classic" transform="translate(1511.203125, 601.2857142857143)"><rect class="basic label-container" style="" x="-95.703125" y="-27" width="191.40625" height="54"/><g class="label" style="" transform="translate(-65.703125, -12)"><rect/><foreignObject width="131.40625" height="24"><div xmlns="http://www.w3.org/1999/xhtml" style="display: table-cell; white-space: nowrap; line-height: 1.5; max-width: 200px; text-align: center;"><span class="nodeLabel"><p>SurfaceLayerStack</p></span></div></foreignObject></g></g><g class="node default" id="my-svg-flowchart-Dach-45" data-look="classic" transform="translate(1115.671875, 671)"><rect class="basic label-container" style="" x="-45.875" y="-27" width="91.75" height="54"/><g class="label" style="" transform="translate(-15.875, -12)"><rect/><foreignObject width="31.75" height="24"><div xmlns="http://www.w3.org/1999/xhtml" style="display: table-cell; white-space: nowrap; line-height: 1.5; max-width: 200px; text-align: center;"><span class="nodeLabel"><p>Roof</p></span></div></foreignObject></g></g><g class="node default" id="my-svg-flowchart-Build-46" data-look="classic" transform="translate(110.09375, 657.5)"><rect class="basic label-container" style="" x="-98.09375" y="-27" width="196.1875" height="54"/><g class="label" style="" transform="translate(-68.09375, -12)"><rect/><foreignObject width="136.1875" height="24"><div xmlns="http://www.w3.org/1999/xhtml" style="display: table-cell; white-space: nowrap; line-height: 1.5; max-width: 200px; text-align: center;"><span class="nodeLabel"><p>Gradle und JaCoCo</p></span></div></foreignObject></g></g></g><g class="edges edgePaths"><path d="M208.188,549L256.688,549" id="my-svg-L_Benutzer_UI_0_0" class="edge-thickness-normal edge-pattern-solid edge-thickness-normal edge-pattern-solid flowchart-link" style=";" data-edge="true" data-et="edge" data-id="L_Benutzer_UI_0_0" data-points="W3sieCI6MjA4LjE4NzUsInkiOjU0OX0seyJ4IjoyNjAuNjg3NSwieSI6NTQ5fV0=" data-look="classic" marker-end="url(#my-svg_flowchart-elk-pointEnd)"/><path d="M453.906,558L484.906,558" id="my-svg-L_UI_Zeichensteuerung_0_0" class="edge-thickness-normal edge-pattern-solid edge-thickness-normal edge-pattern-solid flowchart-link" style=";" data-edge="true" data-et="edge" data-id="L_UI_Zeichensteuerung_0_0" data-points="W3sieCI6NDUzLjkwNjI1LCJ5Ijo1NTh9LHsieCI6NDg4LjkwNjI1LCJ5Ijo1NTh9XQ==" data-look="classic" marker-end="url(#my-svg_flowchart-elk-pointEnd)"/><path d="M648.813,537L650.896,537C652.979,537,657.146,537,659.701,536.638C662.255,536.276,663.198,535.552,664.031,534.719C664.865,533.886,665.589,532.943,665.951,452.638C666.313,372.333,666.313,212.667,666.674,132.362C667.036,52.057,667.76,51.114,668.594,50.281C669.427,49.448,670.37,48.724,691.078,48.362C711.786,48,752.26,48,772.497,48L792.734,48" id="my-svg-L_Zeichensteuerung_Drafting_0_0" class="edge-thickness-normal edge-pattern-solid edge-thickness-normal edge-pattern-solid flowchart-link" style=";" data-edge="true" data-et="edge" data-id="L_Zeichensteuerung_Drafting_0_0" data-points="W3sieCI6NjQ4LjgxMjUsInkiOjUzN30seyJ4Ijo2NjYuMzEyNSwieSI6NTM3fSx7IngiOjY2Ni4zMTI1LCJ5Ijo0OH0seyJ4Ijo3OTYuNzM0Mzc1LCJ5Ijo0OH1d" data-look="classic" marker-end="url(#my-svg_flowchart-elk-pointEnd)"/><path d="M648.813,543L653.813,543C658.813,543,668.813,543,674.284,542.638C679.755,542.276,680.698,541.552,681.531,540.719C682.365,539.886,683.089,538.943,683.451,470.971C683.813,403,683.813,268,684.174,200.029C684.536,132.057,685.26,131.114,686.094,130.281C686.927,129.448,687.87,128.724,709.802,128.362C731.734,128,774.656,128,796.117,128L817.578,128" id="my-svg-L_Zeichensteuerung_Snap_0_0" class="edge-thickness-normal edge-pattern-solid edge-thickness-normal edge-pattern-solid flowchart-link" style=";" data-edge="true" data-et="edge" data-id="L_Zeichensteuerung_Snap_0_0" data-points="W3sieCI6NjQ4LjgxMjUsInkiOjU0M30seyJ4Ijo2ODMuODEyNSwieSI6NTQzfSx7IngiOjY4My44MTI1LCJ5IjoxMjh9LHsieCI6ODIxLjU3ODEyNSwieSI6MTI4fV0=" data-look="classic" marker-end="url(#my-svg_flowchart-elk-pointEnd)"/><path d="M648.813,549L656.729,549C664.646,549,680.479,549,688.867,548.638C697.255,548.276,698.198,547.552,699.031,546.719C699.865,545.886,700.589,544.943,700.951,490.805C701.313,436.667,701.313,329.333,701.674,275.195C702.036,221.057,702.76,220.114,703.594,219.281C704.427,218.448,705.37,217.724,720.506,217.362C735.643,217,764.974,217,779.639,217L794.305,217" id="my-svg-L_Zeichensteuerung_Editing_0_0" class="edge-thickness-normal edge-pattern-solid edge-thickness-normal edge-pattern-solid flowchart-link" style=";" data-edge="true" data-et="edge" data-id="L_Zeichensteuerung_Editing_0_0" data-points="W3sieCI6NjQ4LjgxMjUsInkiOjU0OX0seyJ4Ijo3MDEuMzEyNSwieSI6NTQ5fSx7IngiOjcwMS4zMTI1LCJ5IjoyMTd9LHsieCI6Nzk4LjMwNDY4NzUsInkiOjIxN31d" data-look="classic" marker-end="url(#my-svg_flowchart-elk-pointEnd)"/><path d="M648.813,555L659.646,555C670.479,555,692.146,555,703.451,554.638C714.755,554.276,715.698,553.552,716.531,552.719C717.365,551.886,718.089,550.943,718.451,510.638C718.813,470.333,718.813,390.667,719.174,350.362C719.536,310.057,720.26,309.114,721.094,308.281C721.927,307.448,722.87,306.724,730.591,306.362C738.313,306,752.813,306,760.063,306L767.313,306" id="my-svg-L_Zeichensteuerung_Openings_0_0" class="edge-thickness-normal edge-pattern-solid edge-thickness-normal edge-pattern-solid flowchart-link" style=";" data-edge="true" data-et="edge" data-id="L_Zeichensteuerung_Openings_0_0" data-points="W3sieCI6NjQ4LjgxMjUsInkiOjU1NX0seyJ4Ijo3MTguODEyNSwieSI6NTU1fSx7IngiOjcxOC44MTI1LCJ5IjozMDZ9LHsieCI6NzcxLjMxMjUsInkiOjMwNn1d" data-look="classic" marker-end="url(#my-svg_flowchart-elk-pointEnd)"/><path d="M648.813,561L662.563,561C676.313,561,703.813,561,718.034,560.638C732.255,560.276,733.198,559.552,734.031,558.719C734.865,557.886,735.589,556.943,735.951,530.471C736.313,504,736.313,452,736.674,425.529C737.036,399.057,737.76,398.114,738.594,397.281C739.427,396.448,740.37,395.724,745.174,395.362C749.979,395,758.646,395,762.979,395L767.313,395" id="my-svg-L_Zeichensteuerung_Parts_0_0" class="edge-thickness-normal edge-pattern-solid edge-thickness-normal edge-pattern-solid flowchart-link" style=";" data-edge="true" data-et="edge" data-id="L_Zeichensteuerung_Parts_0_0" data-points="W3sieCI6NjQ4LjgxMjUsInkiOjU2MX0seyJ4Ijo3MzYuMzEyNSwieSI6NTYxfSx7IngiOjczNi4zMTI1LCJ5IjozOTV9LHsieCI6NzcxLjMxMjUsInkiOjM5NX1d" data-look="classic" marker-end="url(#my-svg_flowchart-elk-pointEnd)"/><path d="M648.813,567L665.479,567C682.146,567,715.479,567,732.617,566.638C749.755,566.276,750.698,565.552,751.531,564.719C752.365,563.886,753.089,562.943,753.451,550.305C753.813,537.667,753.813,513.333,754.174,500.695C754.536,488.057,755.26,487.114,756.094,486.281C756.927,485.448,757.87,484.724,762.177,484.362C766.484,484,774.156,484,777.992,484L781.828,484" id="my-svg-L_Zeichensteuerung_Exchange_0_0" class="edge-thickness-normal edge-pattern-solid edge-thickness-normal edge-pattern-solid flowchart-link" style=";" data-edge="true" data-et="edge" data-id="L_Zeichensteuerung_Exchange_0_0" data-points="W3sieCI6NjQ4LjgxMjUsInkiOjU2N30seyJ4Ijo3NTMuODEyNSwieSI6NTY3fSx7IngiOjc1My44MTI1LCJ5Ijo0ODR9LHsieCI6Nzg1LjgyODEyNSwieSI6NDg0fV0=" data-look="classic" marker-end="url(#my-svg_flowchart-elk-pointEnd)"/><path d="M648.813,573L767.313,573" id="my-svg-L_Zeichensteuerung_Layers_0_0" class="edge-thickness-normal edge-pattern-solid edge-thickness-normal edge-pattern-solid flowchart-link" style=";" data-edge="true" data-et="edge" data-id="L_Zeichensteuerung_Layers_0_0" data-points="W3sieCI6NjQ4LjgxMjUsInkiOjU3M30seyJ4Ijo3NzEuMzEyNSwieSI6NTczfV0=" data-look="classic" marker-end="url(#my-svg_flowchart-elk-pointEnd)"/><path d="M648.813,579L650.896,579C652.979,579,657.146,579,659.701,579.362C662.255,579.724,663.198,580.448,664.031,581.281C664.865,582.114,665.589,583.057,665.951,594.195C666.313,605.333,666.313,626.667,666.674,637.805C667.036,648.943,667.76,649.886,668.594,650.719C669.427,651.552,670.37,652.276,694.495,652.638C718.62,653,765.927,653,789.581,653L813.234,653" id="my-svg-L_Zeichensteuerung_Modell_0_0" class="edge-thickness-normal edge-pattern-solid edge-thickness-normal edge-pattern-solid flowchart-link" style=";" data-edge="true" data-et="edge" data-id="L_Zeichensteuerung_Modell_0_0" data-points="W3sieCI6NjQ4LjgxMjUsInkiOjU3OX0seyJ4Ijo2NjYuMzEyNSwieSI6NTc5fSx7IngiOjY2Ni4zMTI1LCJ5Ijo2NTN9LHsieCI6ODE3LjIzNDM3NSwieSI6NjUzfV0=" data-look="classic" marker-end="url(#my-svg_flowchart-elk-pointEnd)"/><path d="M966.453,39L979.927,39C993.401,39,1020.349,39,1034.294,39.362C1048.24,39.724,1049.182,40.448,1050.016,41.281C1050.849,42.114,1051.573,43.057,1051.935,67.929C1052.297,92.8,1052.297,141.6,1052.659,166.471C1053.021,191.343,1053.745,192.286,1054.578,193.119C1055.411,193.952,1056.354,194.676,1058.242,195.038C1060.13,195.4,1062.964,195.4,1064.38,195.4L1065.797,195.4" id="my-svg-L_Drafting_Geometrie_0_0" class="edge-thickness-normal edge-pattern-solid edge-thickness-normal edge-pattern-solid flowchart-link" style=";" data-edge="true" data-et="edge" data-id="L_Drafting_Geometrie_0_0" data-points="W3sieCI6OTY2LjQ1MzEyNSwieSI6Mzl9LHsieCI6MTA1Mi4yOTY4NzUsInkiOjM5fSx7IngiOjEwNTIuMjk2ODc1LCJ5IjoxOTUuNDAwMDAwMDAwMDAwMDN9LHsieCI6MTA2OS43OTY4NzUsInkiOjE5NS40MDAwMDAwMDAwMDAwM31d" data-look="classic" marker-end="url(#my-svg_flowchart-elk-pointEnd)"/><path d="M967.031,128L977.492,128C987.953,128,1008.875,128,1019.807,128.362C1030.74,128.724,1031.682,129.448,1032.516,130.281C1033.349,131.114,1034.073,132.057,1034.435,143.895C1034.797,155.733,1034.797,178.467,1035.159,190.305C1035.521,202.143,1036.245,203.086,1037.078,203.919C1037.911,204.752,1038.854,205.476,1043.659,205.838C1048.464,206.2,1057.13,206.2,1061.464,206.2L1065.797,206.2" id="my-svg-L_Snap_Geometrie_0_0" class="edge-thickness-normal edge-pattern-solid edge-thickness-normal edge-pattern-solid flowchart-link" style=";" data-edge="true" data-et="edge" data-id="L_Snap_Geometrie_0_0" data-points="W3sieCI6OTY3LjAzMTI1LCJ5IjoxMjh9LHsieCI6MTAzNC43OTY4NzUsInkiOjEyOH0seyJ4IjoxMDM0Ljc5Njg3NSwieSI6MjA2LjIwMDAwMDAwMDAwMDA1fSx7IngiOjEwNjkuNzk2ODc1LCJ5IjoyMDYuMjAwMDAwMDAwMDAwMDV9XQ==" data-look="classic" marker-end="url(#my-svg_flowchart-elk-pointEnd)"/><path d="M990.305,217L1065.797,217" id="my-svg-L_Editing_Geometrie_0_0" class="edge-thickness-normal edge-pattern-solid edge-thickness-normal edge-pattern-solid flowchart-link" style=";" data-edge="true" data-et="edge" data-id="L_Editing_Geometrie_0_0" data-points="W3sieCI6OTkwLjMwNDY4NzUsInkiOjIxN30seyJ4IjoxMDY5Ljc5Njg3NSwieSI6MjE3fV0=" data-look="classic" marker-end="url(#my-svg_flowchart-elk-pointEnd)"/><path d="M1017.297,306L1019.38,306C1021.464,306,1025.63,306,1028.185,305.638C1030.74,305.276,1031.682,304.552,1032.516,303.719C1033.349,302.886,1034.073,301.943,1034.435,290.105C1034.797,278.267,1034.797,255.533,1035.159,243.695C1035.521,231.857,1036.245,230.914,1037.078,230.081C1037.911,229.248,1038.854,228.524,1043.659,228.162C1048.464,227.8,1057.13,227.8,1061.464,227.8L1065.797,227.8" id="my-svg-L_Openings_Geometrie_0_0" class="edge-thickness-normal edge-pattern-solid edge-thickness-normal edge-pattern-solid flowchart-link" style=";" data-edge="true" data-et="edge" data-id="L_Openings_Geometrie_0_0" data-points="W3sieCI6MTAxNy4yOTY4NzUsInkiOjMwNn0seyJ4IjoxMDM0Ljc5Njg3NSwieSI6MzA2fSx7IngiOjEwMzQuNzk2ODc1LCJ5IjoyMjcuOH0seyJ4IjoxMDY5Ljc5Njg3NSwieSI6MjI3Ljh9XQ==" data-look="classic" marker-end="url(#my-svg_flowchart-elk-pointEnd)"/><path d="M1002.781,484L1065.797,484" id="my-svg-L_Exchange_Dxf_0_0" class="edge-thickness-normal edge-pattern-solid edge-thickness-normal edge-pattern-solid flowchart-link" style=";" data-edge="true" data-et="edge" data-id="L_Exchange_Dxf_0_0" data-points="W3sieCI6MTAwMi43ODEyNSwieSI6NDg0fSx7IngiOjEwNjkuNzk2ODc1LCJ5Ijo0ODR9XQ==" data-look="classic" marker-end="url(#my-svg_flowchart-elk-pointEnd)"/><path d="M971.375,653L981.112,653C990.849,653,1010.323,653,1020.531,652.638C1030.74,652.276,1031.682,651.552,1032.516,650.719C1033.349,649.886,1034.073,648.943,1034.435,638.305C1034.797,627.667,1034.797,607.333,1035.159,596.695C1035.521,586.057,1036.245,585.114,1037.078,584.281C1037.911,583.448,1038.854,582.724,1064.029,582.362C1089.205,582,1138.612,582,1163.316,582L1188.02,582" id="my-svg-L_Modell_Etage_0_0" class="edge-thickness-normal edge-pattern-solid edge-thickness-normal edge-pattern-solid flowchart-link" style=";" data-edge="true" data-et="edge" data-id="L_Modell_Etage_0_0" data-points="W3sieCI6OTcxLjM3NSwieSI6NjUzfSx7IngiOjEwMzQuNzk2ODc1LCJ5Ijo2NTN9LHsieCI6MTAzNC43OTY4NzUsInkiOjU4Mn0seyJ4IjoxMTkyLjAyMDA4OTI4NTcxNDIsInkiOjU4Mn1d" data-look="classic" marker-end="url(#my-svg_flowchart-elk-pointEnd)"/><path d="M1290.129,562.714L1295.608,562.714C1301.086,562.714,1312.043,562.714,1317.993,562.352C1323.943,561.99,1324.886,561.267,1325.719,560.433C1326.552,559.6,1327.276,558.657,1327.638,492.114C1328,425.571,1328,293.429,1328.362,226.886C1328.724,160.343,1329.448,159.4,1330.281,158.567C1331.114,157.733,1332.057,157.01,1345.612,156.648C1359.167,156.286,1385.333,156.286,1398.417,156.286L1411.5,156.286" id="my-svg-L_Etage_Wand_0_0" class="edge-thickness-normal edge-pattern-solid edge-thickness-normal edge-pattern-solid flowchart-link" style=";" data-edge="true" data-et="edge" data-id="L_Etage_Wand_0_0" data-points="W3sieCI6MTI5MC4xMjk0NjQyODU3MTQyLCJ5Ijo1NjIuNzE0Mjg1NzE0Mjg1N30seyJ4IjoxMzI4LCJ5Ijo1NjIuNzE0Mjg1NzE0Mjg1N30seyJ4IjoxMzI4LCJ5IjoxNTYuMjg1NzE0Mjg1NzE0Mjh9LHsieCI6MTQxNS41LCJ5IjoxNTYuMjg1NzE0Mjg1NzE0Mjh9XQ==" data-look="classic" marker-end="url(#my-svg_flowchart-elk-pointEnd)"/><path d="M1290.129,570.429L1298.525,570.429C1306.92,570.429,1323.71,570.429,1332.576,570.067C1341.443,569.705,1342.386,568.981,1343.219,568.148C1344.052,567.314,1344.776,566.371,1345.138,513.376C1345.5,460.381,1345.5,355.333,1345.862,302.338C1346.224,249.343,1346.948,248.4,1347.781,247.567C1348.614,246.733,1349.557,246.01,1360.195,245.648C1370.833,245.286,1391.167,245.286,1401.333,245.286L1411.5,245.286" id="my-svg-L_Etage_Raum_0_0" class="edge-thickness-normal edge-pattern-solid edge-thickness-normal edge-pattern-solid flowchart-link" style=";" data-edge="true" data-et="edge" data-id="L_Etage_Raum_0_0" data-points="W3sieCI6MTI5MC4xMjk0NjQyODU3MTQyLCJ5Ijo1NzAuNDI4NTcxNDI4NTcxNH0seyJ4IjoxMzQ1LjUsInkiOjU3MC40Mjg1NzE0Mjg1NzE0fSx7IngiOjEzNDUuNSwieSI6MjQ1LjI4NTcxNDI4NTcxNDI4fSx7IngiOjE0MTUuNSwieSI6MjQ1LjI4NTcxNDI4NTcxNDI4fV0=" data-look="classic" marker-end="url(#my-svg_flowchart-elk-pointEnd)"/><path d="M1290.129,578.143L1301.441,578.143C1312.753,578.143,1335.376,578.143,1347.16,577.781C1358.943,577.419,1359.886,576.695,1360.719,575.862C1361.552,575.028,1362.276,574.086,1362.638,534.638C1363,495.19,1363,417.238,1363.362,377.791C1363.724,338.343,1364.448,337.4,1365.281,336.567C1366.114,335.733,1367.057,335.01,1374.779,334.648C1382.5,334.286,1397,334.286,1404.25,334.286L1411.5,334.286" id="my-svg-L_Etage_Tuer_0_0" class="edge-thickness-normal edge-pattern-solid edge-thickness-normal edge-pattern-solid flowchart-link" style=";" data-edge="true" data-et="edge" data-id="L_Etage_Tuer_0_0" data-points="W3sieCI6MTI5MC4xMjk0NjQyODU3MTQyLCJ5Ijo1NzguMTQyODU3MTQyODU3MX0seyJ4IjoxMzYzLCJ5Ijo1NzguMTQyODU3MTQyODU3MX0seyJ4IjoxMzYzLCJ5IjozMzQuMjg1NzE0Mjg1NzE0M30seyJ4IjoxNDE1LjUsInkiOjMzNC4yODU3MTQyODU3MTQzfV0=" data-look="classic" marker-end="url(#my-svg_flowchart-elk-pointEnd)"/><path d="M1290.129,585.857L1304.358,585.857C1318.586,585.857,1347.043,585.857,1361.743,585.495C1376.443,585.133,1377.386,584.409,1378.219,583.576C1379.052,582.743,1379.776,581.8,1380.138,555.9C1380.5,530,1380.5,479.143,1380.862,453.243C1381.224,427.343,1381.948,426.4,1382.781,425.567C1383.614,424.733,1384.557,424.01,1389.362,423.648C1394.167,423.286,1402.833,423.286,1407.167,423.286L1411.5,423.286" id="my-svg-L_Etage_Fenster_0_0" class="edge-thickness-normal edge-pattern-solid edge-thickness-normal edge-pattern-solid flowchart-link" style=";" data-edge="true" data-et="edge" data-id="L_Etage_Fenster_0_0" data-points="W3sieCI6MTI5MC4xMjk0NjQyODU3MTQyLCJ5Ijo1ODUuODU3MTQyODU3MTQyOX0seyJ4IjoxMzgwLjUsInkiOjU4NS44NTcxNDI4NTcxNDI5fSx7IngiOjEzODAuNSwieSI6NDIzLjI4NTcxNDI4NTcxNDN9LHsieCI6MTQxNS41LCJ5Ijo0MjMuMjg1NzE0Mjg1NzE0M31d" data-look="classic" marker-end="url(#my-svg_flowchart-elk-pointEnd)"/><path d="M1290.129,593.571L1307.275,593.571C1324.42,593.571,1358.71,593.571,1376.326,593.209C1393.943,592.848,1394.886,592.124,1395.719,591.29C1396.552,590.457,1397.276,589.514,1397.638,577.162C1398,564.81,1398,541.048,1398.362,528.695C1398.724,516.343,1399.448,515.4,1400.281,514.567C1401.114,513.733,1402.057,513.01,1403.945,512.648C1405.833,512.286,1408.667,512.286,1410.083,512.286L1411.5,512.286" id="my-svg-L_Etage_Treppe_0_0" class="edge-thickness-normal edge-pattern-solid edge-thickness-normal edge-pattern-solid flowchart-link" style=";" data-edge="true" data-et="edge" data-id="L_Etage_Treppe_0_0" data-points="W3sieCI6MTI5MC4xMjk0NjQyODU3MTQyLCJ5Ijo1OTMuNTcxNDI4NTcxNDI4Nn0seyJ4IjoxMzk4LCJ5Ijo1OTMuNTcxNDI4NTcxNDI4Nn0seyJ4IjoxMzk4LCJ5Ijo1MTIuMjg1NzE0Mjg1NzE0Mn0seyJ4IjoxNDE1LjUsInkiOjUxMi4yODU3MTQyODU3MTQyfV0=" data-look="classic" marker-end="url(#my-svg_flowchart-elk-pointEnd)"/><path d="M1290.129,601.286L1411.5,601.286" id="my-svg-L_Etage_Ebenen_0_0" class="edge-thickness-normal edge-pattern-solid edge-thickness-normal edge-pattern-solid flowchart-link" style=";" data-edge="true" data-et="edge" data-id="L_Etage_Ebenen_0_0" data-points="W3sieCI6MTI5MC4xMjk0NjQyODU3MTQyLCJ5Ijo2MDEuMjg1NzE0Mjg1NzE0M30seyJ4IjoxNDE1LjUsInkiOjYwMS4yODU3MTQyODU3MTQzfV0=" data-look="classic" marker-end="url(#my-svg_flowchart-elk-pointEnd)"/><path d="M971.375,671L1065.797,671" id="my-svg-L_Modell_Dach_0_0" class="edge-thickness-normal edge-pattern-solid edge-thickness-normal edge-pattern-solid flowchart-link" style=";" data-edge="true" data-et="edge" data-id="L_Modell_Dach_0_0" data-points="W3sieCI6OTcxLjM3NSwieSI6NjcxfSx7IngiOjEwNjkuNzk2ODc1LCJ5Ijo2NzF9XQ==" data-look="classic" marker-end="url(#my-svg_flowchart-elk-pointEnd)"/><path d="M208.188,657.5L213.188,657.5C218.188,657.5,228.188,657.5,233.659,657.138C239.13,656.776,240.073,656.052,240.906,655.219C241.74,654.386,242.464,653.443,242.826,639.555C243.188,625.667,243.188,598.833,243.549,584.945C243.911,571.057,244.635,570.114,245.469,569.281C246.302,568.448,247.245,567.724,249.133,567.362C251.021,567,253.854,567,255.271,567L256.688,567" id="my-svg-L_Build_UI_0_0" class="edge-thickness-normal edge-pattern-solid edge-thickness-normal edge-pattern-solid flowchart-link" style=";" data-edge="true" data-et="edge" data-id="L_Build_UI_0_0" data-points="W3sieCI6MjA4LjE4NzUsInkiOjY1Ny41fSx7IngiOjI0My4xODc1LCJ5Ijo2NTcuNX0seyJ4IjoyNDMuMTg3NSwieSI6NTY3fSx7IngiOjI2MC42ODc1LCJ5Ijo1Njd9XQ==" data-look="classic" marker-end="url(#my-svg_flowchart-elk-pointEnd)"/><path d="M208.188,644L210.271,644C212.354,644,216.521,644,219.076,643.638C221.63,643.276,222.573,642.552,223.406,641.719C224.24,640.886,224.964,639.943,225.326,538.805C225.688,437.667,225.688,236.333,226.049,135.195C226.411,34.057,227.135,33.114,227.969,32.281C228.802,31.448,229.745,30.724,251.318,30.362C272.891,30,315.094,30,371.456,30C427.818,30,498.339,30,570.911,30C643.484,30,718.109,30,755.422,30L792.734,30" id="my-svg-L_Build_Drafting_0_0" class="edge-thickness-normal edge-pattern-solid edge-thickness-normal edge-pattern-solid flowchart-link" style=";" data-edge="true" data-et="edge" data-id="L_Build_Drafting_0_0" data-points="W3sieCI6MjA4LjE4NzUsInkiOjY0NH0seyJ4IjoyMjUuNjg3NSwieSI6NjQ0fSx7IngiOjIyNS42ODc1LCJ5IjozMH0seyJ4IjozNTcuMjk2ODc1LCJ5IjozMH0seyJ4Ijo1NjguODU5Mzc1LCJ5IjozMH0seyJ4Ijo3OTYuNzM0Mzc1LCJ5IjozMH1d" data-look="classic" marker-end="url(#my-svg_flowchart-elk-pointEnd)"/><path d="M208.188,671L233.039,671C257.891,671,307.594,671,367.706,671C427.818,671,498.339,671,574.328,671C650.318,671,731.776,671,772.505,671L813.234,671" id="my-svg-L_Build_Modell_0_0" class="edge-thickness-normal edge-pattern-solid edge-thickness-normal edge-pattern-solid flowchart-link" style=";" data-edge="true" data-et="edge" data-id="L_Build_Modell_0_0" data-points="W3sieCI6MjA4LjE4NzUsInkiOjY3MX0seyJ4IjozNTcuMjk2ODc1LCJ5Ijo2NzF9LHsieCI6NTY4Ljg1OTM3NSwieSI6NjcxfSx7IngiOjgxNy4yMzQzNzUsInkiOjY3MX1d" data-look="classic" marker-end="url(#my-svg_flowchart-elk-pointEnd)"/></g><g class="edgeLabels"><g class="edgeLabel"><g class="label" data-id="L_Benutzer_UI_0_0" transform="translate(0, 0)"><foreignObject width="0" height="0"><div xmlns="http://www.w3.org/1999/xhtml" class="labelBkg" style="display: table-cell; white-space: nowrap; line-height: 1.5; max-width: 200px; text-align: center;"><span class="edgeLabel"></span></div></foreignObject></g></g><g class="edgeLabel"><g class="label" data-id="L_UI_Zeichensteuerung_0_0" transform="translate(0, 0)"><foreignObject width="0" height="0"><div xmlns="http://www.w3.org/1999/xhtml" class="labelBkg" style="display: table-cell; white-space: nowrap; line-height: 1.5; max-width: 200px; text-align: center;"><span class="edgeLabel"></span></div></foreignObject></g></g><g class="edgeLabel"><g class="label" data-id="L_Zeichensteuerung_Drafting_0_0" transform="translate(0, 0)"><foreignObject width="0" height="0"><div xmlns="http://www.w3.org/1999/xhtml" class="labelBkg" style="display: table-cell; white-space: nowrap; line-height: 1.5; max-width: 200px; text-align: center;"><span class="edgeLabel"></span></div></foreignObject></g></g><g class="edgeLabel"><g class="label" data-id="L_Zeichensteuerung_Snap_0_0" transform="translate(0, 0)"><foreignObject width="0" height="0"><div xmlns="http://www.w3.org/1999/xhtml" class="labelBkg" style="display: table-cell; white-space: nowrap; line-height: 1.5; max-width: 200px; text-align: center;"><span class="edgeLabel"></span></div></foreignObject></g></g><g class="edgeLabel"><g class="label" data-id="L_Zeichensteuerung_Editing_0_0" transform="translate(0, 0)"><foreignObject width="0" height="0"><div xmlns="http://www.w3.org/1999/xhtml" class="labelBkg" style="display: table-cell; white-space: nowrap; line-height: 1.5; max-width: 200px; text-align: center;"><span class="edgeLabel"></span></div></foreignObject></g></g><g class="edgeLabel"><g class="label" data-id="L_Zeichensteuerung_Openings_0_0" transform="translate(0, 0)"><foreignObject width="0" height="0"><div xmlns="http://www.w3.org/1999/xhtml" class="labelBkg" style="display: table-cell; white-space: nowrap; line-height: 1.5; max-width: 200px; text-align: center;"><span class="edgeLabel"></span></div></foreignObject></g></g><g class="edgeLabel"><g class="label" data-id="L_Zeichensteuerung_Parts_0_0" transform="translate(0, 0)"><foreignObject width="0" height="0"><div xmlns="http://www.w3.org/1999/xhtml" class="labelBkg" style="display: table-cell; white-space: nowrap; line-height: 1.5; max-width: 200px; text-align: center;"><span class="edgeLabel"></span></div></foreignObject></g></g><g class="edgeLabel"><g class="label" data-id="L_Zeichensteuerung_Exchange_0_0" transform="translate(0, 0)"><foreignObject width="0" height="0"><div xmlns="http://www.w3.org/1999/xhtml" class="labelBkg" style="display: table-cell; white-space: nowrap; line-height: 1.5; max-width: 200px; text-align: center;"><span class="edgeLabel"></span></div></foreignObject></g></g><g class="edgeLabel"><g class="label" data-id="L_Zeichensteuerung_Layers_0_0" transform="translate(0, 0)"><foreignObject width="0" height="0"><div xmlns="http://www.w3.org/1999/xhtml" class="labelBkg" style="display: table-cell; white-space: nowrap; line-height: 1.5; max-width: 200px; text-align: center;"><span class="edgeLabel"></span></div></foreignObject></g></g><g class="edgeLabel"><g class="label" data-id="L_Zeichensteuerung_Modell_0_0" transform="translate(0, 0)"><foreignObject width="0" height="0"><div xmlns="http://www.w3.org/1999/xhtml" class="labelBkg" style="display: table-cell; white-space: nowrap; line-height: 1.5; max-width: 200px; text-align: center;"><span class="edgeLabel"></span></div></foreignObject></g></g><g class="edgeLabel"><g class="label" data-id="L_Drafting_Geometrie_0_0" transform="translate(0, 0)"><foreignObject width="0" height="0"><div xmlns="http://www.w3.org/1999/xhtml" class="labelBkg" style="display: table-cell; white-space: nowrap; line-height: 1.5; max-width: 200px; text-align: center;"><span class="edgeLabel"></span></div></foreignObject></g></g><g class="edgeLabel"><g class="label" data-id="L_Snap_Geometrie_0_0" transform="translate(0, 0)"><foreignObject width="0" height="0"><div xmlns="http://www.w3.org/1999/xhtml" class="labelBkg" style="display: table-cell; white-space: nowrap; line-height: 1.5; max-width: 200px; text-align: center;"><span class="edgeLabel"></span></div></foreignObject></g></g><g class="edgeLabel"><g class="label" data-id="L_Editing_Geometrie_0_0" transform="translate(0, 0)"><foreignObject width="0" height="0"><div xmlns="http://www.w3.org/1999/xhtml" class="labelBkg" style="display: table-cell; white-space: nowrap; line-height: 1.5; max-width: 200px; text-align: center;"><span class="edgeLabel"></span></div></foreignObject></g></g><g class="edgeLabel"><g class="label" data-id="L_Openings_Geometrie_0_0" transform="translate(0, 0)"><foreignObject width="0" height="0"><div xmlns="http://www.w3.org/1999/xhtml" class="labelBkg" style="display: table-cell; white-space: nowrap; line-height: 1.5; max-width: 200px; text-align: center;"><span class="edgeLabel"></span></div></foreignObject></g></g><g class="edgeLabel"><g class="label" data-id="L_Exchange_Dxf_0_0" transform="translate(0, 0)"><foreignObject width="0" height="0"><div xmlns="http://www.w3.org/1999/xhtml" class="labelBkg" style="display: table-cell; white-space: nowrap; line-height: 1.5; max-width: 200px; text-align: center;"><span class="edgeLabel"></span></div></foreignObject></g></g><g class="edgeLabel"><g class="label" data-id="L_Modell_Etage_0_0" transform="translate(0, 0)"><foreignObject width="0" height="0"><div xmlns="http://www.w3.org/1999/xhtml" class="labelBkg" style="display: table-cell; white-space: nowrap; line-height: 1.5; max-width: 200px; text-align: center;"><span class="edgeLabel"></span></div></foreignObject></g></g><g class="edgeLabel"><g class="label" data-id="L_Etage_Wand_0_0" transform="translate(0, 0)"><foreignObject width="0" height="0"><div xmlns="http://www.w3.org/1999/xhtml" class="labelBkg" style="display: table-cell; white-space: nowrap; line-height: 1.5; max-width: 200px; text-align: center;"><span class="edgeLabel"></span></div></foreignObject></g></g><g class="edgeLabel"><g class="label" data-id="L_Etage_Raum_0_0" transform="translate(0, 0)"><foreignObject width="0" height="0"><div xmlns="http://www.w3.org/1999/xhtml" class="labelBkg" style="display: table-cell; white-space: nowrap; line-height: 1.5; max-width: 200px; text-align: center;"><span class="edgeLabel"></span></div></foreignObject></g></g><g class="edgeLabel"><g class="label" data-id="L_Etage_Tuer_0_0" transform="translate(0, 0)"><foreignObject width="0" height="0"><div xmlns="http://www.w3.org/1999/xhtml" class="labelBkg" style="display: table-cell; white-space: nowrap; line-height: 1.5; max-width: 200px; text-align: center;"><span class="edgeLabel"></span></div></foreignObject></g></g><g class="edgeLabel"><g class="label" data-id="L_Etage_Fenster_0_0" transform="translate(0, 0)"><foreignObject width="0" height="0"><div xmlns="http://www.w3.org/1999/xhtml" class="labelBkg" style="display: table-cell; white-space: nowrap; line-height: 1.5; max-width: 200px; text-align: center;"><span class="edgeLabel"></span></div></foreignObject></g></g><g class="edgeLabel"><g class="label" data-id="L_Etage_Treppe_0_0" transform="translate(0, 0)"><foreignObject width="0" height="0"><div xmlns="http://www.w3.org/1999/xhtml" class="labelBkg" style="display: table-cell; white-space: nowrap; line-height: 1.5; max-width: 200px; text-align: center;"><span class="edgeLabel"></span></div></foreignObject></g></g><g class="edgeLabel"><g class="label" data-id="L_Etage_Ebenen_0_0" transform="translate(0, 0)"><foreignObject width="0" height="0"><div xmlns="http://www.w3.org/1999/xhtml" class="labelBkg" style="display: table-cell; white-space: nowrap; line-height: 1.5; max-width: 200px; text-align: center;"><span class="edgeLabel"></span></div></foreignObject></g></g><g class="edgeLabel"><g class="label" data-id="L_Modell_Dach_0_0" transform="translate(0, 0)"><foreignObject width="0" height="0"><div xmlns="http://www.w3.org/1999/xhtml" class="labelBkg" style="display: table-cell; white-space: nowrap; line-height: 1.5; max-width: 200px; text-align: center;"><span class="edgeLabel"></span></div></foreignObject></g></g><g class="edgeLabel"><g class="label" data-id="L_Build_UI_0_0" transform="translate(0, 0)"><foreignObject width="0" height="0"><div xmlns="http://www.w3.org/1999/xhtml" class="labelBkg" style="display: table-cell; white-space: nowrap; line-height: 1.5; max-width: 200px; text-align: center;"><span class="edgeLabel"></span></div></foreignObject></g></g><g class="edgeLabel"><g class="label" data-id="L_Build_Drafting_0_0" transform="translate(0, 0)"><foreignObject width="0" height="0"><div xmlns="http://www.w3.org/1999/xhtml" class="labelBkg" style="display: table-cell; white-space: nowrap; line-height: 1.5; max-width: 200px; text-align: center;"><span class="edgeLabel"></span></div></foreignObject></g></g><g class="edgeLabel"><g class="label" data-id="L_Build_Modell_0_0" transform="translate(0, 0)"><foreignObject width="0" height="0"><div xmlns="http://www.w3.org/1999/xhtml" class="labelBkg" style="display: table-cell; white-space: nowrap; line-height: 1.5; max-width: 200px; text-align: center;"><span class="edgeLabel"></span></div></foreignObject></g></g></g></svg>