0
SECTION
2
HEADER
9
$ACADVER
1
AC1015
9
$INSUNITS
70
4
9
$MEASUREMENT
70
1
9
$HANDSEED
5
FFFF
9
$CLAYER
8
0
0
ENDSEC
0
SECTION
2
TABLES
0
TABLE
2
LTYPE
70
1
0
LTYPE
5
10A
100
AcDbSymbolTableRecord
100
AcDbLinetypeTableRecord
2
CONTINUOUS
70
0
3
Solid line
72
65
73
0
40
0.0
0
ENDTAB
0
TABLE
2
LAYER
70
7
0
LAYER
5
10B
100
AcDbSymbolTableRecord
100
AcDbLayerTableRecord
2
0
70
0
62
7
6
CONTINUOUS
0
LAYER
5
10C
100
AcDbSymbolTableRecord
100
AcDbLayerTableRecord
2
CADAS_META
70
0
62
8
6
CONTINUOUS
0
LAYER
5
10D
100
AcDbSymbolTableRecord
100
AcDbLayerTableRecord
2
Erdgeschoss_WALLS
70
0
62
5
6
CONTINUOUS
0
LAYER
5
10E
100
AcDbSymbolTableRecord
100
AcDbLayerTableRecord
2
Erdgeschoss_ROOMS
70
0
62
30
6
CONTINUOUS
0
LAYER
5
10F
100
AcDbSymbolTableRecord
100
AcDbLayerTableRecord
2
Erdgeschoss_DOORS
70
0
62
1
6
CONTINUOUS
0
LAYER
5
110
100
AcDbSymbolTableRecord
100
AcDbLayerTableRecord
2
Erdgeschoss_WINDOWS
70
0
62
4
6
CONTINUOUS
0
LAYER
5
111
100
AcDbSymbolTableRecord
100
AcDbLayerTableRecord
2
Erdgeschoss_STAIRS
70
0
62
33
6
CONTINUOUS
0
ENDTAB
0
TABLE
2
STYLE
70
1
0
STYLE
5
112
100
AcDbSymbolTableRecord
100
AcDbTextStyleTableRecord
2
Standard
70
0
40
0.0
41
1.0
50
0.0
71
0
42
2.5
3
txt
4

0
ENDTAB
0
TABLE
2
BLOCK_RECORD
70
5
0
BLOCK_RECORD
5
105
100
AcDbSymbolTableRecord
100
AcDbBlockTableRecord
2
*Model_Space
0
BLOCK_RECORD
5
106
100
AcDbSymbolTableRecord
100
AcDbBlockTableRecord
2
*Paper_Space
0
BLOCK_RECORD
5
107
100
AcDbSymbolTableRecord
100
AcDbBlockTableRecord
2
CADAS_WINDOW
0
BLOCK_RECORD
5
108
100
AcDbSymbolTableRecord
100
AcDbBlockTableRecord
2
CADAS_DOOR
0
BLOCK_RECORD
5
109
100
AcDbSymbolTableRecord
100
AcDbBlockTableRecord
2
CADAS_STAIR
0
ENDTAB
0
ENDSEC
0
SECTION
2
BLOCKS
0
BLOCK
5
113
330
105
100
AcDbEntity
8
0
100
AcDbBlockBegin
2
*Model_Space
70
0
10
0.0
20
0.0
30
0.0
3
*Model_Space
1

0
ENDBLK
5
114
330
105
100
AcDbEntity
8
0
100
AcDbBlockEnd
0
BLOCK
5
115
330
106
100
AcDbEntity
8
0
100
AcDbBlockBegin
2
*Paper_Space
70
0
10
0.0
20
0.0
30
0.0
3
*Paper_Space
1

0
ENDBLK
5
116
330
106
100
AcDbEntity
8
0
100
AcDbBlockEnd
0
BLOCK
5
117
330
108
100
AcDbEntity
8
0
100
AcDbBlockBegin
2
CADAS_DOOR
70
0
10
0.0
20
0.0
30
0.0
3
CADAS_DOOR
1

0
LINE
5
118
100
AcDbEntity
8
0
100
AcDbLine
10
0.0
20
0.0
30
0.0
11
1000.0
21
0.0
31
0.0
0
ENDBLK
5
119
330
108
100
AcDbEntity
8
0
100
AcDbBlockEnd
0
BLOCK
5
11A
330
107
100
AcDbEntity
8
0
100
AcDbBlockBegin
2
CADAS_WINDOW
70
0
10
0.0
20
0.0
30
0.0
3
CADAS_WINDOW
1

0
LINE
5
11B
100
AcDbEntity
8
0
100
AcDbLine
10
0.0
20
0.0
30
0.0
11
1000.0
21
0.0
31
0.0
0
LINE
5
11C
100
AcDbEntity
8
0
100
AcDbLine
10
250.0
20
-60.0
30
0.0
11
250.0
21
60.0
31
0.0
0
LINE
5
11D
100
AcDbEntity
8
0
100
AcDbLine
10
750.0
20
-60.0
30
0.0
11
750.0
21
60.0
31
0.0
0
ENDBLK
5
11E
330
107
100
AcDbEntity
8
0
100
AcDbBlockEnd
0
BLOCK
5
11F
330
109
100
AcDbEntity
8
0
100
AcDbBlockBegin
2
CADAS_STAIR
70
0
10
0.0
20
0.0
30
0.0
3
CADAS_STAIR
1

0
LWPOLYLINE
5
120
100
AcDbEntity
8
0
100
AcDbPolyline
90
4
70
1
10
0.0
20
0.0
10
1000.0
20
0.0
10
1000.0
20
1000.0
10
0.0
20
1000.0
0
LINE
5
121
100
AcDbEntity
8
0
100
AcDbLine
10
180.0
20
200.0
30
0.0
11
820.0
21
200.0
31
0.0
0
LINE
5
122
100
AcDbEntity
8
0
100
AcDbLine
10
180.0
20
400.0
30
0.0
11
820.0
21
400.0
31
0.0
0
LINE
5
123
100
AcDbEntity
8
0
100
AcDbLine
10
180.0
20
600.0
30
0.0
11
820.0
21
600.0
31
0.0
0
LINE
5
124
100
AcDbEntity
8
0
100
AcDbLine
10
180.0
20
800.0
30
0.0
11
820.0
21
800.0
31
0.0
0
ENDBLK
5
125
330
109
100
AcDbEntity
8
0
100
AcDbBlockEnd
0
ENDSEC
0
SECTION
2
ENTITIES
0
TEXT
5
126
330
105
100
AcDbEntity
8
CADAS_META
67
0
410
Model
100
AcDbText
10
0.0
20
0.0
30
0.0
40
120.0
1
CADAS_DXF|3
7
Standard
0
TEXT
5
127
330
105
100
AcDbEntity
8
CADAS_META
67
0
410
Model
100
AcDbText
10
0.0
20
0.0
30
0.0
40
120.0
1
PROJECT|Neues+Projekt
7
Standard
0
TEXT
5
128
330
105
100
AcDbEntity
8
CADAS_META
67
0
410
Model
100
AcDbText
10
0.0
20
0.0
30
0.0
40
120.0
1
LEVEL|Erdgeschoss
7
Standard
0
LINE
5
129
330
105
100
AcDbEntity
8
Erdgeschoss_WALLS
67
0
410
Model
100
AcDbLine
10
20.0
20
0.0
30
0.0
11
20.0
21
-3620.0
31
0.0
0
LINE
5
12A
330
105
100
AcDbEntity
8
Erdgeschoss_WALLS
67
0
410
Model
100
AcDbLine
10
1060.0
20
-3750.0
30
0.0
11
-6720.0
21
-3750.0
31
0.0
0
LINE
5
12B
330
105
100
AcDbEntity
8
Erdgeschoss_WALLS
67
0
410
Model
100
AcDbLine
10
-6850.0
20
-10800.0
30
0.0
11
-6850.0
21
-3620.0
31
0.0
0
LINE
5
12C
330
105
100
AcDbEntity
8
Erdgeschoss_WALLS
67
0
410
Model
100
AcDbLine
10
-6980.0
20
-10670.0
30
0.0
11
1320.0
21
-10670.0
31
0.0
0
LINE
5
12D
330
105
100
AcDbEntity
8
Erdgeschoss_WALLS
67
0
410
Model
100
AcDbLine
10
1190.0
20
-10800.0
30
0.0
11
1190.0
21
-3620.0
31
0.0
0
LINE
5
12E
330
105
100
AcDbEntity
8
Erdgeschoss_WALLS
67
0
410
Model
100
AcDbLine
10
4750.0
20
-7140.0
30
0.0
11
4750.0
21
0.0
31
0.0
0
LINE
5
12F
330
105
100
AcDbEntity
8
Erdgeschoss_WALLS
67
0
410
Model
100
AcDbLine
10
1320.0
20
-7010.0
30
0.0
11
4880.0
21
-7010.0
31
0.0
0
LINE
5
130
330
105
100
AcDbEntity
8
Erdgeschoss_WALLS
67
0
410
Model
100
AcDbLine
10
-110.0
20
-130.0
30
0.0
11
4880.0
21
-130.0
31
0.0
0
LINE
5
131
330
105
100
AcDbEntity
8
Erdgeschoss_WALLS
67
0
410
Model
100
AcDbLine
10
1450.0
20
-7140.0
30
0.0
11
1450.0
21
-3620.0
31
0.0
0
LINE
5
132
330
105
100
AcDbEntity
8
Erdgeschoss_WALLS
67
0
410
Model
100
AcDbLine
10
150.0
20
-3530.0
30
0.0
11
4790.0
21
-3530.0
31
0.0
0
LINE
5
133
330
105
100
AcDbEntity
8
Erdgeschoss_WALLS
67
0
410
Model
100
AcDbLine
10
-2040.0
20
-3880.0
30
0.0
11
-2040.0
21
-6880.0
31
0.0
0
LINE
5
134
330
105
100
AcDbEntity
8
Erdgeschoss_WALLS
67
0
410
Model
100
AcDbLine
10
-2100.0
20
-7010.0
30
0.0
11
1060.0
21
-7010.0
31
0.0
0
LINE
5
135
330
105
100
AcDbEntity
8
Erdgeschoss_WALLS
67
0
410
Model
100
AcDbLine
10
-6750.0
20
-6740.0
30
0.0
11
-2480.0
21
-6740.0
31
0.0
0
LINE
5
136
330
105
100
AcDbEntity
8
Erdgeschoss_WALLS
67
0
410
Model
100
AcDbLine
10
-2420.0
20
-6610.0
30
0.0
11
-2420.0
21
-10540.0
31
0.0
0
LINE
5
137
330
105
100
AcDbEntity
8
Erdgeschoss_WALLS
67
0
410
Model
100
AcDbLine
10
-2360.0
20
-6670.0
30
0.0
11
-2100.0
21
-6670.0
31
0.0
0
LINE
5
138
330
105
100
AcDbEntity
8
Erdgeschoss_WALLS
67
0
410
Model
100
AcDbLine
10
-2100.0
20
-7080.0
30
0.0
11
-2360.0
21
-7080.0
31
0.0
0
LINE
5
139
330
105
100
AcDbEntity
8
Erdgeschoss_WALLS
67
0
410
Model
100
AcDbLine
10
-2480.0
20
-8950.0
30
0.0
11
-4970.0
21
-8950.0
31
0.0
0
LINE
5
13A
330
105
100
AcDbEntity
8
Erdgeschoss_WALLS
67
0
410
Model
100
AcDbLine
10
-4940.0
20
-8920.0
30
0.0
11
-4940.0
21
-10540.0
31
0.0
0
LINE
5
13B
330
105
100
AcDbEntity
8
Erdgeschoss_WALLS
67
0
410
Model
100
AcDbLine
10
-3910.0
20
-6870.0
30
0.0
11
-3910.0
21
-7870.0
31
0.0
0
LWPOLYLINE
5
13C
330
105
100
AcDbEntity
8
Erdgeschoss_ROOMS
67
0
410
Model
100
AcDbPolyline
90
10
70
1
10
-6720.0
20
-10540.0
10
-4970.0
20
-10540.0
10
-4970.0
20
-8920.0
10
-2480.0
20
-8920.0
10
-2480.0
20
-6870.0
10
-3870.0
20
-6870.0
10
-3870.0
20
-7870.0
10
-3950.0
20
-7870.0
10
-3950.0
20
-6870.0
10
-6720.0
20
-6870.0
0
LWPOLYLINE
5
13D
330
105
100
AcDbEntity
8
Erdgeschoss_ROOMS
67
0
410
Model
100
AcDbPolyline
90
4
70
1
10
-6720.0
20
-6610.0
10
-2100.0
20
-6610.0
10
-2100.0
20
-3880.0
10
-6720.0
20
-3880.0
0
LWPOLYLINE
5
13E
330
105
100
AcDbEntity
8
Erdgeschoss_ROOMS
67
0
410
Model
100
AcDbPolyline
90
4
70
1
10
-4910.0
20
-10540.0
10
-2480.0
20
-10540.0
10
-2480.0
20
-8980.0
10
-4910.0
20
-8980.0
0
LWPOLYLINE
5
13F
330
105
100
AcDbEntity
8
Erdgeschoss_ROOMS
67
0
410
Model
100
AcDbPolyline
90
4
70
1
10
-2360.0
20
-10540.0
10
1060.0
20
-10540.0
10
1060.0
20
-7140.0
10
-2360.0
20
-7140.0
0
LWPOLYLINE
5
140
330
105
100
AcDbEntity
8
Erdgeschoss_ROOMS
67
0
410
Model
100
AcDbPolyline
90
4
70
1
10
-2360.0
20
-7020.0
10
-2100.0
20
-7020.0
10
-2100.0
20
-6730.0
10
-2360.0
20
-6730.0
0
LWPOLYLINE
5
141
330
105
100
AcDbEntity
8
Erdgeschoss_ROOMS
67
0
410
Model
100
AcDbPolyline
90
4
70
1
10
-1980.0
20
-6880.0
10
1060.0
20
-6880.0
10
1060.0
20
-3880.0
10
-1980.0
20
-3880.0
0
LWPOLYLINE
5
142
330
105
100
AcDbEntity
8
Erdgeschoss_ROOMS
67
0
410
Model
100
AcDbPolyline
90
4
70
1
10
150.0
20
-3440.0
10
4620.0
20
-3440.0
10
4620.0
20
-260.0
10
150.0
20
-260.0
0
LWPOLYLINE
5
143
330
105
100
AcDbEntity
8
Erdgeschoss_ROOMS
67
0
410
Model
100
AcDbPolyline
90
4
70
1
10
1580.0
20
-6880.0
10
4620.0
20
-6880.0
10
4620.0
20
-3620.0
10
1580.0
20
-3620.0
0
LINE
5
144
330
105
100
AcDbEntity
8
Erdgeschoss_DOORS
67
0
410
Model
100
AcDbLine
10
1875.399
20
-3530.0
30
0.0
11
4105.398999999999
21
-3530.0
31
0.0
0
INSERT
5
145
330
105
100
AcDbEntity
8
Erdgeschoss_DOORS
67
0
410
Model
100
AcDbBlockReference
2
CADAS_DOOR
10
1875.399
20
-3530.0
30
0.0
41
2.23
42
1.0
43
1.0
50
0.0
0
LINE
5
146
330
105
100
AcDbEntity
8
Erdgeschoss_DOORS
67
0
410
Model
100
AcDbLine
10
-344.991
20
-3750.0
30
0.0
11
-1354.991
21
-3750.0
31
0.0
0
INSERT
5
147
330
105
100
AcDbEntity
8
Erdgeschoss_DOORS
67
0
410
Model
100
AcDbBlockReference
2
CADAS_DOOR
10
-344.991
20
-3750.0
30
0.0
41
1.01
42
1.0
43
1.0
50
180.0
0
LINE
5
148
330
105
100
AcDbEntity
8
Erdgeschoss_DOORS
67
0
410
Model
100
AcDbLine
10
-2040.0
20
-4765.0
30
0.0
11
-2040.0
21
-5615.0
31
0.0
0
INSERT
5
149
330
105
100
AcDbEntity
8
Erdgeschoss_DOORS
67
0
410
Model
100
AcDbBlockReference
2
CADAS_DOOR
10
-2040.0
20
-4765.0
30
0.0
41
0.85
42
1.0
43
1.0
50
270.0
0
LINE
5
14A
330
105
100
AcDbEntity
8
Erdgeschoss_DOORS
67
0
410
Model
100
AcDbLine
10
-1250.0
20
-7010.0
30
0.0
11
-390.0
21
-7010.0
31
0.0
0
INSERT
5
14B
330
105
100
AcDbEntity
8
Erdgeschoss_DOORS
67
0
410
Model
100
AcDbBlockReference
2
CADAS_DOOR
10
-1250.0
20
-7010.0
30
0.0
41
0.86
42
1.0
43
1.0
50
0.0
0
LINE
5
14C
330
105
100
AcDbEntity
8
Erdgeschoss_DOORS
67
0
410
Model
100
AcDbLine
10
-2420.0
20
-7805.0
30
0.0
11
-2420.0
21
-8645.0
31
0.0
0
INSERT
5
14D
330
105
100
AcDbEntity
8
Erdgeschoss_DOORS
67
0
410
Model
100
AcDbBlockReference
2
CADAS_DOOR
10
-2420.0
20
-7805.0
30
0.0
41
0.84
42
1.0
43
1.0
50
270.0
0
LINE
5
14E
330
105
100
AcDbEntity
8
Erdgeschoss_DOORS
67
0
410
Model
100
AcDbLine
10
-3140.0
20
-8950.0
30
0.0
11
-3740.0
21
-8950.0
31
0.0
0
INSERT
5
14F
330
105
100
AcDbEntity
8
Erdgeschoss_DOORS
67
0
410
Model
100
AcDbBlockReference
2
CADAS_DOOR
10
-3140.0
20
-8950.0
30
0.0
41
0.6
42
1.0
43
1.0
50
180.0
0
LINE
5
150
330
105
100
AcDbEntity
8
Erdgeschoss_WINDOWS
67
0
410
Model
100
AcDbLine
10
-5129.997
20
-3750.0
30
0.0
11
-6149.997
21
-3750.0
31
0.0
0
INSERT
5
151
330
105
100
AcDbEntity
8
Erdgeschoss_WINDOWS
67
0
410
Model
100
AcDbBlockReference
2
CADAS_WINDOW
10
-5129.997
20
-3750.0
30
0.0
41
1.02
42
1.0
43
1.0
50
180.0
0
LINE
5
152
330
105
100
AcDbEntity
8
Erdgeschoss_WINDOWS
67
0
410
Model
100
AcDbLine
10
-2860.002
20
-3750.0
30
0.0
11
-3880.0020000000004
21
-3750.0
31
0.0
0
INSERT
5
153
330
105
100
AcDbEntity
8
Erdgeschoss_WINDOWS
67
0
410
Model
100
AcDbBlockReference
2
CADAS_WINDOW
10
-2860.002
20
-3750.0
30
0.0
41
1.02
42
1.0
43
1.0
50
180.0
0
LINE
5
154
330
105
100
AcDbEntity
8
Erdgeschoss_WINDOWS
67
0
410
Model
100
AcDbLine
10
648.7619999999998
20
-130.0
30
0.0
11
1668.762
21
-130.0
31
0.0
0
INSERT
5
155
330
105
100
AcDbEntity
8
Erdgeschoss_WINDOWS
67
0
410
Model
100
AcDbBlockReference
2
CADAS_WINDOW
10
648.7619999999998
20
-130.0
30
0.0
41
1.02
42
1.0
43
1.0
50
0.0
0
LINE
5
156
330
105
100
AcDbEntity
8
Erdgeschoss_WINDOWS
67
0
410
Model
100
AcDbLine
10
2888.746
20
-130.0
30
0.0
11
3908.746
21
-130.0
31
0.0
0
INSERT
5
157
330
105
100
AcDbEntity
8
Erdgeschoss_WINDOWS
67
0
410
Model
100
AcDbBlockReference
2
CADAS_WINDOW
10
2888.746
20
-130.0
30
0.0
41
1.02
42
1.0
43
1.0
50
0.0
0
LINE
5
158
330
105
100
AcDbEntity
8
Erdgeschoss_WINDOWS
67
0
410
Model
100
AcDbLine
10
4750.0
20
-5917.577
30
0.0
11
4750.0
21
-4787.577
31
0.0
0
INSERT
5
159
330
105
100
AcDbEntity
8
Erdgeschoss_WINDOWS
67
0
410
Model
100
AcDbBlockReference
2
CADAS_WINDOW
10
4750.0
20
-5917.577
30
0.0
41
1.13
42
1.0
43
1.0
50
90.0
0
LINE
5
15A
330
105
100
AcDbEntity
8
Erdgeschoss_WINDOWS
67
0
410
Model
100
AcDbLine
10
-4940.0
20
-9590.0
30
0.0
11
-4940.0
21
-9990.0
31
0.0
0
INSERT
5
15B
330
105
100
AcDbEntity
8
Erdgeschoss_WINDOWS
67
0
410
Model
100
AcDbBlockReference
2
CADAS_WINDOW
10
-4940.0
20
-9590.0
30
0.0
41
0.4
42
1.0
43
1.0
50
270.0
0
LINE
5
15C
330
105
100
AcDbEntity
8
Erdgeschoss_WINDOWS
67
0
410
Model
100
AcDbLine
10
-6850.0
20
-9085.0
30
0.0
11
-6850.0
21
-8435.0
31
0.0
0
INSERT
5
15D
330
105
100
AcDbEntity
8
Erdgeschoss_WINDOWS
67
0
410
Model
100
AcDbBlockReference
2
CADAS_WINDOW
10
-6850.0
20
-9085.0
30
0.0
41
0.65
42
1.0
43
1.0
50
90.0
0
LINE
5
15E
330
105
100
AcDbEntity
8
Erdgeschoss_WINDOWS
67
0
410
Model
100
AcDbLine
10
1190.0
20
-9390.0
30
0.0
11
1190.0
21
-8700.0
31
0.0
0
INSERT
5
15F
330
105
100
AcDbEntity
8
Erdgeschoss_WINDOWS
67
0
410
Model
100
AcDbBlockReference
2
CADAS_WINDOW
10
1190.0
20
-9390.0
30
0.0
41
0.69
42
1.0
43
1.0
50
90.0
0
LWPOLYLINE
5
160
330
105
100
AcDbEntity
8
Erdgeschoss_STAIRS
67
0
410
Model
100
AcDbPolyline
90
4
70
1
10
-170.0
20
-10540.0
10
1060.0
20
-10540.0
10
1060.0
20
-7140.0
10
-170.0
20
-7140.0
0
INSERT
5
161
330
105
100
AcDbEntity
8
Erdgeschoss_STAIRS
67
0
410
Model
100
AcDbBlockReference
2
CADAS_STAIR
10
-170.0
20
-10540.0
30
0.0
41
1.23
42
3.4
43
1.0
50
0.0
0
LWPOLYLINE
5
162
330
105
100
AcDbEntity
8
Erdgeschoss_STAIRS
67
0
410
Model
100
AcDbPolyline
90
4
70
1
10
-2410.0
20
-8150.0
10
-2410.0
20
-8150.0
10
-2410.0
20
-7980.0
10
-2410.0
20
-7980.0
0
INSERT
5
163
330
105
100
AcDbEntity
8
Erdgeschoss_STAIRS
67
0
410
Model
100
AcDbBlockReference
2
CADAS_STAIR
10
-2410.0
20
-8150.0
30
0.0
41
0.001
42
0.17
43
1.0
50
0.0
0
TEXT
5
164
330
105
100
AcDbEntity
8
CADAS_META
67
0
410
Model
100
AcDbText
10
20.0
20
0.0
30
0.0
40
120.0
1
WALL|Erdgeschoss|1b32809f-b52a-4751-a6ea-be06858245ad|260.000|2120.000|2120.000|2120.000|20.000|0.000|20.000|-3620.000
7
Standard
0
TEXT
5
165
330
105
100
AcDbEntity
8
CADAS_META
67
0
410
Model
100
AcDbText
10
1060.0
20
-3750.0
30
0.0
40
120.0
1
WALL|Erdgeschoss|1b7956e5-a083-4d26-8338-07ff224fe500|260.000|2120.000|2120.000|2120.000|1060.000|-3750.000|-6720.000|-3750.000
7
Standard
0
TEXT
5
166
330
105
100
AcDbEntity
8
CADAS_META
67
0
410
Model
100
AcDbText
10
-6850.0
20
-10800.0
30
0.0
40
120.0
1
WALL|Erdgeschoss|e83e5ab9-a257-4c77-93f2-580b48081c46|260.000|2120.000|2120.000|2120.000|-6850.000|-10800.000|-6850.000|-3620.000
7
Standard
0
TEXT
5
167
330
105
100
AcDbEntity
8
CADAS_META
67
0
410
Model
100
AcDbText
10
-6980.0
20
-10670.0
30
0.0
40
120.0
1
WALL|Erdgeschoss|42d5b62b-1476-40e2-8f19-3ca1a15170c7|260.000|2120.000|2120.000|2120.000|-6980.000|-10670.000|1320.000|-10670.000
7
Standard
0
TEXT
5
168
330
105
100
AcDbEntity
8
CADAS_META
67
0
410
Model
100
AcDbText
10
1190.0
20
-10800.0
30
0.0
40
120.0
1
WALL|Erdgeschoss|fefb24b8-5207-4acc-9a50-1b32fc699b25|260.000|2120.000|2120.000|2120.000|1190.000|-10800.000|1190.000|-3620.000
7
Standard
0
TEXT
5
169
330
105
100
AcDbEntity
8
CADAS_META
67
0
410
Model
100
AcDbText
10
4750.0
20
-7140.0
30
0.0
40
120.0
1
WALL|Erdgeschoss|e132f803-4f8c-42e9-b50a-109282c74493|260.000|2120.000|2120.000|2120.000|4750.000|-7140.000|4750.000|0.000
7
Standard
0
TEXT
5
16A
330
105
100
AcDbEntity
8
CADAS_META
67
0
410
Model
100
AcDbText
10
1320.0
20
-7010.0
30
0.0
40
120.0
1
WALL|Erdgeschoss|f07ea409-9971-4437-8fcf-d43fa34f5a6f|260.000|2120.000|2120.000|2120.000|1320.000|-7010.000|4880.000|-7010.000
7
Standard
0
TEXT
5
16B
330
105
100
AcDbEntity
8
CADAS_META
67
0
410
Model
100
AcDbText
10
-110.0
20
-130.0
30
0.0
40
120.0
1
WALL|Erdgeschoss|ecce166c-6a38-48ea-aaed-7d375da9b7a1|260.000|2120.000|2120.000|2120.000|-110.000|-130.000|4880.000|-130.000
7
Standard
0
TEXT
5
16C
330
105
100
AcDbEntity
8
CADAS_META
67
0
410
Model
100
AcDbText
10
1450.0
20
-7140.0
30
0.0
40
120.0
1
WALL|Erdgeschoss|200399d8-37f8-47ec-8438-a3e1ed160fa1|260.000|2120.000|2120.000|2120.000|1450.000|-7140.000|1450.000|-3620.000
7
Standard
0
TEXT
5
16D
330
105
100
AcDbEntity
8
CADAS_META
67
0
410
Model
100
AcDbText
10
150.0
20
-3530.0
30
0.0
40
120.0
1
WALL|Erdgeschoss|9a27c1ab-943f-4430-b5f1-2e9ebee7a81b|180.000|2120.000|2120.000|2120.000|150.000|-3530.000|4790.000|-3530.000
7
Standard
0
TEXT
5
16E
330
105
100
AcDbEntity
8
CADAS_META
67
0
410
Model
100
AcDbText
10
-2040.0
20
-3880.0
30
0.0
40
120.0
1
WALL|Erdgeschoss|c5d3a0d8-a3d5-4089-8192-51d3ab8e6a02|120.000|2120.000|2120.000|2120.000|-2040.000|-3880.000|-2040.000|-6880.000
7
Standard
0
TEXT
5
16F
330
105
100
AcDbEntity
8
CADAS_META
67
0
410
Model
100
AcDbText
10
-2100.0
20
-7010.0
30
0.0
40
120.0
1
WALL|Erdgeschoss|ee57899d-fef6-4997-b969-1c3301088b0f|260.000|2120.000|2120.000|2120.000|-2100.000|-7010.000|1060.000|-7010.000
7
Standard
0
TEXT
5
170
330
105
100
AcDbEntity
8
CADAS_META
67
0
410
Model
100
AcDbText
10
-6750.0
20
-6740.0
30
0.0
40
120.0
1
WALL|Erdgeschoss|11374b32-aab8-4a90-83db-f034b54e03b1|260.000|2120.000|2120.000|2120.000|-6750.000|-6740.000|-2480.000|-6740.000
7
Standard
0
TEXT
5
171
330
105
100
AcDbEntity
8
CADAS_META
67
0
410
Model
100
AcDbText
10
-2420.0
20
-6610.0
30
0.0
40
120.0
1
WALL|Erdgeschoss|8997c8d2-355d-48b5-963a-3b57d8eedd66|120.000|2120.000|2120.000|2120.000|-2420.000|-6610.000|-2420.000|-10540.000
7
Standard
0
TEXT
5
172
330
105
100
AcDbEntity
8
CADAS_META
67
0
410
Model
100
AcDbText
10
-2360.0
20
-6670.0
30
0.0
40
120.0
1
WALL|Erdgeschoss|c398bb7d-78f3-4a5c-8637-394083b8b7e3|120.000|2120.000|2120.000|2120.000|-2360.000|-6670.000|-2100.000|-6670.000
7
Standard
0
TEXT
5
173
330
105
100
AcDbEntity
8
CADAS_META
67
0
410
Model
100
AcDbText
10
-2100.0
20
-7080.0
30
0.0
40
120.0
1
WALL|Erdgeschoss|9e52c75b-fe4e-46d4-a60f-e216fc7456d3|120.000|2120.000|2120.000|2120.000|-2100.000|-7080.000|-2360.000|-7080.000
7
Standard
0
TEXT
5
174
330
105
100
AcDbEntity
8
CADAS_META
67
0
410
Model
100
AcDbText
10
-2480.0
20
-8950.0
30
0.0
40
120.0
1
WALL|Erdgeschoss|ba33c176-50ca-4feb-a9fc-4064ceef7e84|60.000|2050.000|2050.000|2050.000|-2480.000|-8950.000|-4970.000|-8950.000
7
Standard
0
TEXT
5
175
330
105
100
AcDbEntity
8
CADAS_META
67
0
410
Model
100
AcDbText
10
-4940.0
20
-8920.0
30
0.0
40
120.0
1
WALL|Erdgeschoss|9eee8dea-a38b-42de-9505-80b06a0faeee|60.000|2050.000|2050.000|2050.000|-4940.000|-8920.000|-4940.000|-10540.000
7
Standard
0
TEXT
5
176
330
105
100
AcDbEntity
8
CADAS_META
67
0
410
Model
100
AcDbText
10
-3910.0
20
-6870.0
30
0.0
40
120.0
1
WALL|Erdgeschoss|ce9ec309-8b75-4c20-89da-0394fc8c2e68|80.000|2050.000|2050.000|2050.000|-3910.000|-6870.000|-3910.000|-7870.000
7
Standard
0
TEXT
5
177
330
105
100
AcDbEntity
8
CADAS_META
67
0
410
Model
100
AcDbText
10
-4398.0
20
-8214.0
30
0.0
40
120.0
1
ROOM|Erdgeschoss|15b12e73-5701-4ca4-9459-6c969332ab13|Kellerraum|2120.000|180.000|1.000|-6720.000,-10540.000;-4970.000,-10540.000;-4970.000,-8920.000;-2480.000,-8920.000;-2480.000,-6870.000;-3870.000,-6870.000;-3870.000,-7870.000;-3950.000,-7870.000;-3950.000,-6870.000;-6720.000,-6870.000|NONE|2120.000;2085.000;2050.000;2085.000;2120.000;2085.000;2050.000;2050.000;2085.000;2120.000
7
Standard
0
TEXT
5
178
330
105
100
AcDbEntity
8
CADAS_META
67
0
410
Model
100
AcDbText
10
-4410.0
20
-5245.0
30
0.0
40
120.0
1
ROOM|Erdgeschoss|17c5173f-f6cf-4b31-a387-ed160385fe6c|Kellerb%C3%BCro|2120.000|180.000|1.000|-6720.000,-6610.000;-2100.000,-6610.000;-2100.000,-3880.000;-6720.000,-3880.000|NONE|2120.000;2120.000;2120.000;2120.000
7
Standard
0
TEXT
5
179
330
105
100
AcDbEntity
8
CADAS_META
67
0
410
Model
100
AcDbText
10
-3695.0
20
-9760.0
30
0.0
40
120.0
1
ROOM|Erdgeschoss|5eecdd48-524d-4a9a-b235-65df19604030|Vorratsraum|2120.000|180.000|1.000|-4910.000,-10540.000;-2480.000,-10540.000;-2480.000,-8980.000;-4910.000,-8980.000|NONE|2085.000;2120.000;2085.000;2050.000
7
Standard
0
TEXT
5
17A
330
105
100
AcDbEntity
8
CADAS_META
67
0
410
Model
100
AcDbText
10
-650.0
20
-8840.0
30
0.0
40
120.0
1
ROOM|Erdgeschoss|b95eb971-93b7-47db-adb6-3d3a5d56ff91|Kellerdurchgang|2120.000|180.000|1.000|-2360.000,-10540.000;1060.000,-10540.000;1060.000,-7140.000;-2360.000,-7140.000|NONE|2120.000;2120.000;2120.000;2120.000
7
Standard
0
TEXT
5
17B
330
105
100
AcDbEntity
8
CADAS_META
67
0
410
Model
100
AcDbText
10
-2230.0
20
-6875.0
30
0.0
40
120.0
1
ROOM|Erdgeschoss|7b9e68fd-2506-47b2-a191-afbbdd2ecdd9|Schornstein|2120.000|180.000|1.000|-2360.000,-7020.000;-2100.000,-7020.000;-2100.000,-6730.000;-2360.000,-6730.000|NONE|2120.000;2120.000;2120.000;2120.000
7
Standard
0
TEXT
5
17C
330
105
100
AcDbEntity
8
CADAS_META
67
0
410
Model
100
AcDbText
10
-460.0
20
-5380.0
30
0.0
40
120.0
1
ROOM|Erdgeschoss|8ef4fadb-2bf1-45c4-9f6c-4f186724a92d|Kellerflur|2120.000|180.000|1.000|-1980.000,-6880.000;1060.000,-6880.000;1060.000,-3880.000;-1980.000,-3880.000|NONE|2120.000;2120.000;2120.000;2120.000
7
Standard
0
TEXT
5
17D
330
105
100
AcDbEntity
8
CADAS_META
67
0
410
Model
100
AcDbText
10
2385.0
20
-1850.0
30
0.0
40
120.0
1
ROOM|Erdgeschoss|df0abef2-14a7-46b5-b719-cc1514ea2afd|Kellergarage|2120.000|180.000|1.000|150.000,-3440.000;4620.000,-3440.000;4620.000,-260.000;150.000,-260.000|NONE|2120.000;2120.000;2120.000;2120.000
7
Standard
0
TEXT
5
17E
330
105
100
AcDbEntity
8
CADAS_META
67
0
410
Model
100
AcDbText
10
3100.0
20
-5250.0
30
0.0
40
120.0
1
ROOM|Erdgeschoss|b8cd5176-574c-4645-a988-75c6329acf3a|Werkstatt|2120.000|180.000|1.000|1580.000,-6880.000;4620.000,-6880.000;4620.000,-3620.000;1580.000,-3620.000|NONE|2120.000;2120.000;2120.000;2120.000
7
Standard
0
TEXT
5
17F
330
105
100
AcDbEntity
8
CADAS_META
67
0
410
Model
100
AcDbText
10
0.0
20
0.0
30
0.0
40
120.0
1
DOOR|Erdgeschoss|28c797a2-6de1-454e-9698-93ae9f808834|9a27c1ab-943f-4430-b5f1-2e9ebee7a81b|1725.399|2230.000|1960.000|0.000
7
Standard
0
TEXT
5
180
330
105
100
AcDbEntity
8
CADAS_META
67
0
410
Model
100
AcDbText
10
0.0
20
0.0
30
0.0
40
120.0
1
DOOR|Erdgeschoss|f13b6f8c-3d5c-4562-a53f-c0ea1febfa0c|1b7956e5-a083-4d26-8338-07ff224fe500|1404.991|1010.000|1960.000|0.000
7
Standard
0
TEXT
5
181
330
105
100
AcDbEntity
8
CADAS_META
67
0
410
Model
100
AcDbText
10
0.0
20
0.0
30
0.0
40
120.0
1
DOOR|Erdgeschoss|809e68da-15f5-4331-bd22-44d8434337c7|c5d3a0d8-a3d5-4089-8192-51d3ab8e6a02|885.000|850.000|1830.000|0.000
7
Standard
0
TEXT
5
182
330
105
100
AcDbEntity
8
CADAS_META
67
0
410
Model
100
AcDbText
10
0.0
20
0.0
30
0.0
40
120.0
1
DOOR|Erdgeschoss|2c5dc5d2-5c34-497d-8e60-8d6fd0149b64|ee57899d-fef6-4997-b969-1c3301088b0f|850.000|860.000|1830.000|0.000
7
Standard
0
TEXT
5
183
330
105
100
AcDbEntity
8
CADAS_META
67
0
410
Model
100
AcDbText
10
0.0
20
0.0
30
0.0
40
120.0
1
DOOR|Erdgeschoss|6be46e32-f0cb-44e3-a46c-fe735a0c312b|8997c8d2-355d-48b5-963a-3b57d8eedd66|1195.000|840.000|1830.000|0.000
7
Standard
0
TEXT
5
184
330
105
100
AcDbEntity
8
CADAS_META
67
0
410
Model
100
AcDbText
10
0.0
20
0.0
30
0.0
40
120.0
1
DOOR|Erdgeschoss|b0cd5534-ade2-414f-9963-86175e23c32c|ba33c176-50ca-4feb-a9fc-4064ceef7e84|660.000|600.000|1830.000|0.000
7
Standard
0
TEXT
5
185
330
105
100
AcDbEntity
8
CADAS_META
67
0
410
Model
100
AcDbText
10
0.0
20
0.0
30
0.0
40
120.0
1
WINDOW|Erdgeschoss|aa3674e2-3530-42b7-97b1-8a93b6db0229|1b7956e5-a083-4d26-8338-07ff224fe500|6189.997|1020.000|800.000|1030.000
7
Standard
0
TEXT
5
186
330
105
100
AcDbEntity
8
CADAS_META
67
0
410
Model
100
AcDbText
10
0.0
20
0.0
30
0.0
40
120.0
1
WINDOW|Erdgeschoss|571fe11a-b154-484c-92c2-95b61ccd56b0|1b7956e5-a083-4d26-8338-07ff224fe500|3920.002|1020.000|800.000|1030.000
7
Standard
0
TEXT
5
187
330
105
100
AcDbEntity
8
CADAS_META
67
0
410
Model
100
AcDbText
10
0.0
20
0.0
30
0.0
40
120.0
1
WINDOW|Erdgeschoss|680374f4-9d96-485d-b2ad-2001e3a643f0|ecce166c-6a38-48ea-aaed-7d375da9b7a1|758.762|1020.000|800.000|1030.000
7
Standard
0
TEXT
5
188
330
105
100
AcDbEntity
8
CADAS_META
67
0
410
Model
100
AcDbText
10
0.0
20
0.0
30
0.0
40
120.0
1
WINDOW|Erdgeschoss|ad0477df-2654-4e15-aee8-6ed6254746a0|ecce166c-6a38-48ea-aaed-7d375da9b7a1|2998.746|1020.000|800.000|1030.000
7
Standard
0
TEXT
5
189
330
105
100
AcDbEntity
8
CADAS_META
67
0
410
Model
100
AcDbText
10
0.0
20
0.0
30
0.0
40
120.0
1
WINDOW|Erdgeschoss|3d5fbb62-20c7-43f2-8aba-9b50ed815259|e132f803-4f8c-42e9-b50a-109282c74493|1222.423|1130.000|720.000|1100.000
7
Standard
0
TEXT
5
18A
330
105
100
AcDbEntity
8
CADAS_META
67
0
410
Model
100
AcDbText
10
0.0
20
0.0
30
0.0
40
120.0
1
WINDOW|Erdgeschoss|1e4b3ffa-1a2d-479f-9650-9d3fab9c1372|9eee8dea-a38b-42de-9505-80b06a0faeee|670.000|400.000|900.000|400.000
7
Standard
0
TEXT
5
18B
330
105
100
AcDbEntity
8
CADAS_META
67
0
410
Model
100
AcDbText
10
0.0
20
0.0
30
0.0
40
120.0
1
WINDOW|Erdgeschoss|abd4c070-6c11-4a3a-bbb4-b65feefe8a82|e83e5ab9-a257-4c77-93f2-580b48081c46|1715.000|650.000|1290.000|520.000
7
Standard
0
TEXT
5
18C
330
105
100
AcDbEntity
8
CADAS_META
67
0
410
Model
100
AcDbText
10
0.0
20
0.0
30
0.0
40
120.0
1
WINDOW|Erdgeschoss|8551271d-ec63-42ed-aa0b-af3d2951dbaa|fefb24b8-5207-4acc-9a50-1b32fc699b25|1410.000|690.000|1300.000|520.000
7
Standard
0
TEXT
5
18D
330
105
100
AcDbEntity
8
CADAS_META
67
0
410
Model
100
AcDbText
10
-170.0
20
-10540.0
30
0.0
40
120.0
1
STAIR|Erdgeschoss|a7c2cd66-8a20-4bc9-9ad2-9ef2deec955b|STRAIGHT|-170.000|-10540.000|1060.000|-7140.000|2200.000|11|0|600.000|600.000
7
Standard
0
TEXT
5
18E
330
105
100
AcDbEntity
8
CADAS_META
67
0
410
Model
100
AcDbText
10
-2410.0
20
-7980.0
30
0.0
40
120.0
1
STAIR|Erdgeschoss|359f1cf6-b83d-4437-abd3-a18aea443aca|STRAIGHT|-2410.000|-7980.000|-2410.000|-8150.000|2200.000|11|0|0.000|0.000
7
Standard
0
ENDSEC
0
SECTION
2
OBJECTS
0
DICTIONARY
5
100
330
0
100
AcDbDictionary
281
1
3
ACAD_GROUP
350
101
3
ACAD_LAYOUT
350
102
0
DICTIONARY
5
101
330
100
100
AcDbDictionary
281
1
0
DICTIONARY
5
102
330
100
100
AcDbDictionary
281
1
3
Model
350
103
3
Layout1
350
104
0
LAYOUT
5
103
330
105
100
AcDbPlotSettings
1
Model
100
AcDbLayout
70
1
71
0
10
0.0
20
0.0
11
420.0
21
297.0
12
0.0
22
0.0
32
0.0
14
420.0
24
297.0
34
0.0
15
0.0
25
0.0
35
0.0
16
1.0
26
0.0
36
0.0
17
0.0
27
0.0
37
1.0
76
0
330
105
0
LAYOUT
5
104
330
106
100
AcDbPlotSettings
1
Layout1
100
AcDbLayout
70
0
71
0
10
0.0
20
0.0
11
420.0
21
297.0
12
0.0
22
0.0
32
0.0
14
420.0
24
297.0
34
0.0
15
0.0
25
0.0
35
0.0
16
1.0
26
0.0
36
0.0
17
0.0
27
0.0
37
1.0
76
0
330
106
0
ENDSEC
0
EOF
